
Open SVG
Paste markup
Demo
Contribute
About
Powered by the incredible SVGO


644 bytes → 384 bytes 59.63%
<svg xmlns="http://www.w3.org/2000/svg" viewBox="0 0 508 508"><circle cx="254" cy="254" r="254" fill="#fd8469"/><path d="M386 131.6H122c-9.6 0-17.2 7.6-17.2 17.2v213.6c0 9.6 7.6 17.2 17.2 17.2h264c9.6 0 17.2-7.6 17.2-17.2V148.8c-.4-9.6-8-17.2-17.2-17.2z" fill="#fff"/><path d="M402.8 197.6v-48.8c0-9.6-7.6-17.2-17.2-17.2H122c-9.6 0-17.2 7.6-17.2 17.2v48.8h298z" fill="#4cdbc4"/><g fill="#324a5e"><path d="M172 164.8c-6 0-10.8-4.8-10.8-10.8v-45.2c0-6 4.8-10.8 10.8-10.8 6 0 10.8 4.8 10.8 10.8V154c0 6-4.8 10.8-10.8 10.8zM336 164.8c-6 0-10.8-4.8-10.8-10.8v-45.2c0-6 4.8-10.8 10.8-10.8 6 0 10.8 4.8 10.8 10.8V154c0 6-5.2 10.8-10.8 10.8z"/></g><g fill="#ced5e0"><path d="M206.8 221.2h30v30h-30zM271.2 221.2h30v30h-30zM336 221.2h30v30h-30zM142 271.6h30v30h-30zM206.8 271.6h30v30h-30zM271.2 271.6h30v30h-30z"/></g><path fill="#ff7058" d="M336 271.6h30v30h-30z"/><g fill="#ced5e0"><path d="M142 322h30v30h-30zM206.8 322h30v30h-30zM271.2 322h30v30h-30z"/></g></svg>