
Open SVG
Paste markup
Demo
Contribute
About
Powered by the incredible SVGO


6.39k → 6.07k 94.87%
<svg viewBox="0 0 512 512" xmlns="http://www.w3.org/2000/svg"><path d="M500.7 180.58l-27.76 37.71C359.39 372.59 134.91 389.08.03 253.04c.5-45.11 12.68-87.41 33.65-124.04C77.8 51.93 160.84 0 256 0s178.2 51.93 222.32 129c9.26 16.17 16.8 33.45 22.38 51.58z" fill="#92eaff"/><path d="M500.7 180.58l-27.76 37.71C359.39 372.59 134.91 389.08.03 253.04c.5-45.11 12.68-87.41 33.65-124.04C77.8 206.07 160.84 258 256 258s178.2-51.93 222.32-129a253.771 253.771 0 0122.38 51.58z" fill="#63dbfa"/><path d="M512 256c0 14.91-1.28 29.53-3.73 43.74-1.22 7.12-2.74 14.14-4.55 21.04a254.002 254.002 0 01-31.18 71.82l-8.2 4.54a338.907 338.907 0 01-44.6 20.61h-237.8c-37.27-14-72.43-34.76-103.59-62.05L2.11 288.92c-.64-4.91-1.14-9.87-1.48-14.86C.21 268.1 0 262.07 0 256v-2.95c.01 0 .02-.01.03-.01 10.86-5.09 23.99-5.11 34.87-.05 10.89 5.07 20.85 14.93 23.95 26.54 9.23-10.65 34.08-11.9 41.3.2 1.01-13.09 10.96-25 23.66-28.33 12.69-3.33 29.8 1.45 37.1 12.36 7.34-12.86 21.33-21.66 36.09-22.72 14.77-1.05 28.14 2.05 37.23 13.73 4.62-9.51 12.41-17.41 21.77-22.3.26-.14.53-.27.79-.41a48.33 48.33 0 016.75-2.77c3.84-1.24 7.91-1.97 12.04-2.19 9.49-.55 19.31 1.5 27.48 5.89-4.03-21.69 10.42-45.25 31.58-51.48 21.16-6.24 47.13 6.69 55.49 27.1 18.67-12.45 43.17-12.74 58.67 3.49 6.37-15.48 20.76-27.39 37.15-30.76 4.85-1 9.83-1.24 14.75-.76 2.25 7.29 4.18 14.73 5.77 22.28.15.72.3 1.43.44 2.15A256.257 256.257 0 01512 256z" fill="#fff"/><path d="M512 256c0 14.91-1.28 29.53-3.73 43.74-1.22 7.12-2.74 14.14-4.55 21.04a254.002 254.002 0 01-31.18 71.82l-8.2 4.54a338.907 338.907 0 01-44.6 20.61H256.79V232.06a48.33 48.33 0 016.75-2.77c3.84-1.24 7.91-1.97 12.04-2.19 9.49-.55 19.31 1.5 27.48 5.89-4.03-21.69 10.42-45.25 31.58-51.48 21.16-6.24 47.13 6.69 55.49 27.1 18.67-12.45 43.17-12.74 58.67 3.49 6.37-15.48 20.76-27.39 37.15-30.76 4.85-1 9.83-1.24 14.75-.76 2.25 7.29 4.18 14.73 5.77 22.28.15.72.3 1.43.44 2.15A256.257 256.257 0 01512 256z" fill="#dff7fd"/><path d="M512 256c0 14.91-1.28 29.53-3.73 43.74-1.22 7.12-2.74 14.14-4.55 21.04a254.002 254.002 0 01-31.18 71.82l-8.2 4.54a338.907 338.907 0 01-44.6 20.61h-237.8c-37.27-14-72.43-34.76-103.59-62.05L2.11 288.92 0 291.88v-9.85c.43-.03.87-.06 1.3-.08 9.03-.42 18.35 2.39 25.89 7.5 11.67 7.9 19.44 20.57 23.95 33.91 6.25-8.2 15.99-14.14 26.29-14.64 10.3-.51 20.73 3.74 27.75 11.29-.39-13.84 10.42-28.78 23.51-33.3s28.85.37 37.08 11.51c2.79-13.68 14.16-24.75 27.97-26.81 13.81-2.07 28.54 5.27 35.21 17.54 5.57-3.78 13.76-4.22 20.41-3.19-.68-7.22 2.09-14.75 6.64-20.62.26-.33.52-.65.79-.97.89-1.08 1.85-2.09 2.86-3.03 6.62-6.15 16.18-9.01 25.09-7.49 6.44 1.09 12.91 4.88 15.01 11.06 7.87-8.93 19.87-14.4 31.77-14.67-3.13-8.56-1.3-19.15 4.83-25.89 6.14-6.75 16.12-9.72 24.94-7.42 8.83 2.31 16.09 9.78 18.14 18.66 4.63 1.16 10.66 2.27 15.28 3.43 5.01-11 18.14-18 30.13-16.39s22.43 10.22 27.72 21.09c5.87-5.83 15.34-9.05 23.57-9.83 2.22-12.59 3.89-17.53 14.58-24.54 3.81-2.5 10.03-4.14 16.2-4.14A256.257 256.257 0 01512 256z" fill="#dff7fd"/><path d="M512 256c0 14.91-1.28 29.53-3.73 43.74-1.22 7.12-2.74 14.14-4.55 21.04a254.002 254.002 0 01-31.18 71.82l-8.2 4.54a338.907 338.907 0 01-44.6 20.61h-39.13l13.18 13.18h-137V264.17c.89-1.08 1.85-2.09 2.86-3.03 6.62-6.15 16.18-9.01 25.09-7.49 6.44 1.09 12.91 4.88 15.01 11.06 7.87-8.93 19.87-14.4 31.77-14.67-3.13-8.56-1.3-19.15 4.83-25.89 6.14-6.75 16.12-9.72 24.94-7.42 8.83 2.31 16.09 9.78 18.14 18.66 4.63 1.16 10.66 2.27 15.28 3.43 5.01-11 18.14-18 30.13-16.39s22.43 10.22 27.72 21.09c5.87-5.83 15.34-9.05 23.57-9.83 2.22-12.59 3.89-17.53 14.58-24.54 3.81-2.5 10.03-4.14 16.2-4.14A256.257 256.257 0 01512 256z" fill="#c5f2f9"/><path d="M445.11 428.55c-2.2 2.41-4.44 4.78-6.73 7.1-1.14 1.16-2.3 2.31-3.46 3.43-1.18 1.16-2.36 2.3-3.56 3.42a240.56 240.56 0 01-6.03 5.49l-7.27 3.09c-7.32 3.11-13.3 8.7-16.89 15.8-.01 0-.01.01-.01.01a252.8 252.8 0 01-18.87 11.82c-2.34-3.52-7.67-2.94-9.2 1l-1.92 4.97c-30.15 15.23-63.72 24.65-99.25 26.83-5.27.33-10.57.49-15.92.49-2.01 0-4.01-.02-6.01-.08-4.02-.08-8.01-.27-11.98-.55-8.59-.59-17.07-1.61-25.41-3.05a245.44 245.44 0 01-21.93-4.73c-4.63-1.22-9.21-2.56-13.73-4.04a253.793 253.793 0 01-44.88-19.51 256.675 256.675 0 01-65.17-51.49z" fill="#92eaff"/><path d="M445.11 428.55a257.334 257.334 0 01-19.78 19.44l-7.27 3.09a33.709 33.709 0 00-16.9 15.81c-6.1 4.21-12.39 8.15-18.86 11.83-2.34-3.53-7.68-2.95-9.21.99l-1.92 4.97c-5.63 2.84-11.37 5.48-17.22 7.9-4.2 1.75-8.46 3.38-12.77 4.9-6.1 2.15-12.3 4.08-18.6 5.77-7.69 2.07-15.53 3.79-23.5 5.13-13.75 2.34-27.88 3.57-42.29 3.62v-83.45z" fill="#63dbfa"/><path d="M8.27 320.78c.64 2.45 1.32 4.88 2.02 7.29.36 1.23.73 2.45 1.11 3.67 2.8 9.05 6.08 17.88 9.83 26.46l43.353 59.694h368.281L275.65 260.68s-9.3 9.31-18.86 18.89c-10.04 10.05-20.37 20.37-20.54 20.5-6.91 5.17-16.57 4.48-22.67-1.62l-110.5-110.5L2.11 288.92c.45 3.63 1 7.24 1.62 10.82 1.22 7.12 2.74 14.14 4.54 21.04z" fill="#7e7f92"/><path d="M432.864 417.894L275.65 260.68s-9.3 9.31-18.86 18.89v138.324z" fill="#6e6f83"/><path d="M21.23 358.2l43.353 59.694h320.952L275.65 308.01s-9.3 9.31-18.86 18.89c-10.04 10.05-20.37 20.37-20.54 20.5-6.91 5.17-16.57 4.48-22.67-1.62l-110.5-110.5-92.79 92.79c.36 1.23.73 2.45 1.11 3.67 2.8 9.05 6.08 17.88 9.83 26.46z" fill="#6e6f83"/><path d="M385.534 417.894L275.65 308.01s-9.3 9.31-18.86 18.89v90.994z" fill="#605f74"/><path d="M472.54 392.6c-3.77 5.97-7.79 11.78-12.04 17.4-1.97 2.63-4 5.21-6.07 7.75-1.2 1.48-2.42 2.94-3.66 4.39-1.85 2.17-3.74 4.31-5.66 6.41-.73.8-1.46 1.59-2.2 2.38H69.09c-.74-.79-1.47-1.58-2.2-2.38-1.92-2.1-3.81-4.24-5.65-6.41-1.24-1.45-2.46-2.91-3.66-4.39-6.92-8.46-13.3-17.38-19.09-26.7-3.07-4.92-5.97-9.96-8.7-15.11a249.63 249.63 0 01-8.56-17.74c6.1 6.38 10.09 14.26 19.97 16.52 11.4 2.62 22.02-2.21 33.13 4.05 7.38 4.15 14.57 9.68 23.12 11.13 3.8.64 8.87.73 12.56-.51 4.39-1.46 7.86-5.16 12.39-6.68 4.49-1.51 9.74-1.52 13.67 1.12 4.17 2.8 6.27 8.07 10.66 10.51 5.33 2.96 11.97.74 17.47-1.91s11.43-5.78 17.37-4.41c7.47 1.72 11.58 9.68 17.93 13.97 6.46 4.38 15.52 4.54 22.13.38 7.42-4.66 14.57-9.73 22.62-6.25 4.15 1.8 8.24 5.2 12.54 4.6.34-.05.69-.12 1.03-.22 4.78-1.4 6.39-7.17 9.21-11.27 5.05-7.34 16.18-9.61 23.7-4.82 3.51 2.24 6.49 5.04 10.31 6.72 3.81 1.68 8.42 2.08 12.05.04 3.24-1.82 5.19-5.22 7.72-7.94 4.38-4.72 10.83-7.47 17.27-7.35 6.45.11 12.79 3.08 17.01 7.95 6.02 6.96 16.61 9.54 23.95 3.99 5.13-3.88 8.6-10.93 15.01-11.51 6-.54 10.88 5.1 16.85 5.88 7.08.93 13.46-5.11 20.59-5.01 5.56.08 12.05 4.31 15.31 8.7 3.71 5.01 6.02 7.49 13.1 7.02 4.22-.28 8.59-1.26 12.64-.3z" fill="#5dbf1d"/><path d="M472.54 392.6a256.414 256.414 0 01-18.11 25.15c-3 3.69-6.11 7.29-9.32 10.8-.73.8-1.46 1.59-2.2 2.38H256.79v-30.21c.34-.05.69-.12 1.03-.22 4.78-1.4 6.39-7.17 9.21-11.27 5.05-7.34 16.18-9.61 23.7-4.82 3.51 2.24 6.49 5.04 10.31 6.72 3.81 1.68 8.42 2.08 12.05.04 3.24-1.82 5.19-5.22 7.72-7.94 4.38-4.72 10.83-7.47 17.27-7.35 6.45.11 12.79 3.08 17.01 7.95 6.02 6.96 16.61 9.54 23.95 3.99 5.13-3.88 8.6-10.93 15.01-11.51 6-.54 10.88 5.1 16.85 5.88 7.08.93 13.46-5.11 20.59-5.01 5.56.08 12.05 4.31 15.31 8.7 3.71 5.01 6.02 7.49 13.1 7.02 4.22-.28 8.59-1.26 12.64-.3z" fill="#43af3e"/><path d="M460.5 410c-1.97 2.63-4 5.21-6.07 7.75-1.2 1.48-2.42 2.94-3.66 4.39-1.85 2.17-3.74 4.31-5.66 6.41-.73.8-1.46 1.59-2.2 2.38H69.09c-.74-.79-1.47-1.58-2.2-2.38-1.92-2.1-3.81-4.24-5.65-6.41-1.24-1.45-2.46-2.91-3.66-4.39-6.92-8.46-13.3-17.38-19.09-26.7.85.33 1.75.6 2.71.82 11.4 2.62 22.02-2.21 33.13 4.05 7.38 4.15 14.57 9.68 23.12 11.13 3.8.65 8.87.73 12.56-.5 4.39-1.47 7.86-5.17 12.39-6.69 4.49-1.51 9.74-1.52 13.67 1.12 4.17 2.8 6.27 8.07 10.66 10.51 5.33 2.96 11.97.74 17.47-1.91s11.43-5.77 17.37-4.41c7.47 1.72 11.58 9.68 17.93 13.98 6.46 4.37 15.52 4.53 22.13.38 7.42-4.67 14.57-9.74 22.62-6.26 4.15 1.8 8.24 5.2 12.54 4.6.34-.05.69-.12 1.03-.22 4.78-1.4 6.39-7.17 9.21-11.27 5.05-7.34 16.18-9.61 23.7-4.82 3.51 2.24 6.49 5.04 10.31 6.72 3.81 1.68 8.42 2.09 12.05.04 3.24-1.82 5.19-5.22 7.72-7.94 4.38-4.72 10.83-7.46 17.27-7.35 6.45.12 12.79 3.08 17.01 7.96 6.02 6.95 16.61 9.53 23.95 3.99 5.13-3.89 8.6-10.94 15.01-11.52 6-.54 10.88 5.1 16.85 5.88 7.08.93 13.46-5.11 20.59-5.01 5.56.09 12.05 4.31 15.31 8.7 3.71 5.01 6.02 7.49 13.1 7.02.2-.01.4-.03.6-.05z" fill="#43af3e"/><path d="M460.5 410c-1.97 2.63-4 5.21-6.07 7.75-1.2 1.48-2.42 2.94-3.66 4.39-1.85 2.17-3.74 4.31-5.66 6.41-.73.8-1.46 1.59-2.2 2.38H256.79v-13.06c.34-.05.69-.12 1.03-.22 4.78-1.4 6.39-7.17 9.21-11.27 5.05-7.34 16.18-9.61 23.7-4.82 3.51 2.24 6.49 5.04 10.31 6.72 3.81 1.68 8.42 2.09 12.05.04 3.24-1.82 5.19-5.22 7.72-7.94 4.38-4.72 10.83-7.46 17.27-7.35 6.45.12 12.79 3.08 17.01 7.96 6.02 6.95 16.61 9.53 23.95 3.99 5.13-3.89 8.6-10.94 15.01-11.52 6-.54 10.88 5.1 16.85 5.88 7.08.93 13.46-5.11 20.59-5.01 5.56.09 12.05 4.31 15.31 8.7 3.71 5.01 6.02 7.49 13.1 7.02.2-.01.4-.03.6-.05z" fill="#00a23e"/><path d="M76.173 380.125h7.574v45.751h-7.574z" fill="#ec771b"/><path d="M79.96 380.125h3.787v45.751H79.96z" fill="#c55732"/><path d="M76.173 380.125h3.787v31.476h-3.787z" fill="#c55732"/><path d="M79.96 380.125h3.787v31.476H79.96z" fill="#a44e3e"/><path d="M108.373 391.66c.078 7.773-6.458 14.132-14.228 14.132H65.778c-7.773 0-14.306-6.359-14.231-14.132a13.943 13.943 0 014.185-9.832 5.887 5.887 0 001.722-4.561 13.964 13.964 0 015.911-12.331c1.614-1.138 2.606-2.963 2.606-4.938v-.23c0-7.727 6.262-13.992 13.989-13.992.081 0 .159.003.239.003 3.837.062 7.273 1.701 9.754 4.278a14.343 14.343 0 013.999 9.94c0 1.974.992 3.8 2.605 4.938a13.974 13.974 0 015.911 12.331 5.86 5.86 0 001.723 4.561 13.95 13.95 0 014.182 9.833z" fill="#b6e337"/><path d="M108.373 391.66c.078 7.773-6.458 14.132-14.228 14.132H73.247c-3.678 0-6.772-6.359-6.735-14.132.019-3.849.771-7.326 1.981-9.832.572-1.191.864-2.864.815-4.561a28.999 28.999 0 01-.013-.889c0-4.729 1.11-8.911 2.811-11.442.762-1.138 1.231-2.963 1.231-4.938v-.23c0-7.727 2.966-13.992 6.623-13.992l.112.003h.128c3.837.062 7.273 1.701 9.754 4.278a14.343 14.343 0 013.999 9.94c0 1.974.992 3.8 2.606 4.938a13.974 13.974 0 015.911 12.331 5.86 5.86 0 001.723 4.561 13.957 13.957 0 014.18 9.833z" fill="#6cdc2d"/><path d="M108.373 391.66c.078 7.773-6.458 14.132-14.228 14.132H79.96v-60.016c.081 0 .159.003.239.003 3.837.062 7.273 1.701 9.754 4.278a14.343 14.343 0 013.999 9.94c0 1.974.992 3.8 2.605 4.938a13.974 13.974 0 015.911 12.331 5.86 5.86 0 001.723 4.561 13.95 13.95 0 014.182 9.833z" fill="#5dbf1d"/><g><path d="M165.5 385.078h6.754v40.797H165.5z" fill="#ec771b"/><path d="M168.877 385.078h3.377v40.797h-3.377zM165.5 385.078h3.377v28.068H165.5z" fill="#c55732"/><path d="M168.877 385.078h3.377v28.068h-3.377z" fill="#a44e3e"/><path d="M194.213 395.365c.069 6.932-5.759 12.602-12.688 12.602H156.23c-6.932 0-12.757-5.67-12.691-12.602a12.431 12.431 0 013.732-8.767 5.25 5.25 0 001.536-4.068 12.454 12.454 0 015.271-10.996c1.439-1.015 2.324-2.642 2.324-4.403v-.205c0-6.89 5.584-12.477 12.474-12.477.072 0 .141.003.213.003 3.422.056 6.485 1.517 8.698 3.815a12.787 12.787 0 013.566 8.864c0 1.761.885 3.388 2.324 4.403a12.462 12.462 0 015.271 10.996 5.232 5.232 0 001.536 4.068 12.423 12.423 0 013.729 8.767z" fill="#b6e337"/><path d="M194.213 395.365c.069 6.932-5.759 12.602-12.688 12.602H162.89c-3.28 0-6.039-5.67-6.006-12.602.017-3.433.688-6.532 1.766-8.767.51-1.062.771-2.554.727-4.068a25.985 25.985 0 01-.011-.793c0-4.217.99-7.946 2.507-10.203.679-1.015 1.098-2.642 1.098-4.403v-.205c0-6.89 2.645-12.477 5.906-12.477l.1.003h.114c3.422.056 6.485 1.517 8.698 3.815a12.787 12.787 0 013.566 8.864c0 1.761.885 3.388 2.324 4.403a12.462 12.462 0 015.271 10.996 5.232 5.232 0 001.536 4.068 12.43 12.43 0 013.727 8.767z" fill="#6cdc2d"/><path d="M194.213 395.365c.069 6.932-5.759 12.602-12.688 12.602h-12.649v-53.518c.072 0 .141.003.213.003 3.422.056 6.485 1.517 8.698 3.815a12.787 12.787 0 013.566 8.864c0 1.761.885 3.388 2.324 4.403a12.462 12.462 0 015.271 10.996 5.232 5.232 0 001.536 4.068 12.423 12.423 0 013.729 8.767z" fill="#5dbf1d"/></g><g><path d="M358.453 385.078h6.754v40.797h-6.754z" fill="#ec771b"/><path d="M361.83 385.078h3.377v40.797h-3.377zM358.453 385.078h3.377v28.068h-3.377z" fill="#c55732"/><path d="M361.83 385.078h3.377v28.068h-3.377z" fill="#a44e3e"/><path d="M387.166 395.365c.069 6.932-5.759 12.602-12.688 12.602h-25.295c-6.932 0-12.757-5.67-12.69-12.602a12.431 12.431 0 013.732-8.767 5.253 5.253 0 001.536-4.068 12.454 12.454 0 015.271-10.996c1.439-1.015 2.324-2.642 2.324-4.403v-.205c0-6.89 5.584-12.477 12.474-12.477.072 0 .141.003.214.003 3.421.056 6.485 1.517 8.698 3.815a12.787 12.787 0 013.566 8.864c0 1.761.884 3.388 2.323 4.403a12.462 12.462 0 015.271 10.996 5.232 5.232 0 001.536 4.068 12.43 12.43 0 013.728 8.767z" fill="#b6e337"/><path d="M387.166 395.365c.069 6.932-5.759 12.602-12.688 12.602h-18.635c-3.28 0-6.039-5.67-6.006-12.602.017-3.433.688-6.532 1.766-8.767.51-1.062.771-2.554.726-4.068a25.985 25.985 0 01-.011-.793c0-4.217.99-7.946 2.507-10.203.679-1.015 1.098-2.642 1.098-4.403v-.205c0-6.89 2.645-12.477 5.906-12.477.033 0 .066.003.1.003h.114c3.421.056 6.485 1.517 8.698 3.815a12.787 12.787 0 013.566 8.864c0 1.761.884 3.388 2.323 4.403a12.462 12.462 0 015.271 10.996 5.232 5.232 0 001.536 4.068 12.427 12.427 0 013.729 8.767z" fill="#6cdc2d"/><path d="M387.166 395.365c.069 6.932-5.759 12.602-12.688 12.602h-12.649v-53.518c.072 0 .141.003.214.003 3.421.056 6.485 1.517 8.698 3.815a12.787 12.787 0 013.566 8.864c0 1.761.884 3.388 2.323 4.403a12.462 12.462 0 015.271 10.996 5.232 5.232 0 001.536 4.068 12.427 12.427 0 013.729 8.767z" fill="#5dbf1d"/></g><g><path d="M133.977 392.904h5.459v32.972h-5.459z" fill="#ec771b"/><path d="M136.706 392.904h2.729v32.972h-2.729z" fill="#c55732"/><path d="M133.977 392.904h2.729v22.684h-2.729z" fill="#c55732"/><path d="M136.706 392.904h2.729v22.684h-2.729z" fill="#a44e3e"/><path d="M157.182 401.217c.056 5.602-4.654 10.185-10.254 10.185h-20.443c-5.602 0-10.31-4.583-10.256-10.185a10.048 10.048 0 013.016-7.086 4.238 4.238 0 001.241-3.287 10.066 10.066 0 014.26-8.887c1.163-.82 1.878-2.135 1.878-3.559v-.166c0-5.568 4.513-10.084 10.082-10.084l.173.002c2.765.045 5.241 1.226 7.029 3.083a10.336 10.336 0 012.882 7.164c0 1.423.715 2.738 1.878 3.559a10.07 10.07 0 014.26 8.887 4.224 4.224 0 001.241 3.287 10.053 10.053 0 013.013 7.087z" fill="#b6e337"/><path d="M157.182 401.217c.056 5.602-4.654 10.185-10.254 10.185h-15.061c-2.651 0-4.881-4.583-4.854-10.185.013-2.774.556-5.279 1.427-7.086.412-.858.623-2.064.587-3.287a19.417 19.417 0 01-.009-.641c0-3.408.8-6.422 2.026-8.246.549-.82.887-2.135.887-3.559v-.166c0-5.568 2.138-10.084 4.773-10.084l.081.002h.092c2.765.045 5.241 1.226 7.029 3.083a10.336 10.336 0 012.882 7.164c0 1.423.715 2.738 1.878 3.559a10.07 10.07 0 014.26 8.887 4.224 4.224 0 001.241 3.287 10.047 10.047 0 013.015 7.087z" fill="#6cdc2d"/><path d="M157.182 401.217c.056 5.602-4.654 10.185-10.254 10.185h-10.223v-43.253l.173.002c2.765.045 5.241 1.226 7.029 3.083a10.336 10.336 0 012.882 7.164c0 1.423.715 2.738 1.878 3.559a10.07 10.07 0 014.26 8.887 4.224 4.224 0 001.241 3.287 10.046 10.046 0 013.014 7.086z" fill="#5dbf1d"/></g><g><path d="M323.908 392.904h5.459v32.972h-5.459z" fill="#ec771b"/><path d="M326.637 392.904h2.729v32.972h-2.729zM323.908 392.904h2.729v22.684h-2.729z" fill="#c55732"/><path d="M326.637 392.904h2.729v22.684h-2.729z" fill="#a44e3e"/><path d="M347.114 401.217c.056 5.602-4.654 10.185-10.254 10.185h-20.443c-5.602 0-10.31-4.583-10.256-10.185a10.052 10.052 0 013.016-7.086 4.238 4.238 0 001.241-3.287 10.066 10.066 0 014.26-8.887c1.163-.82 1.878-2.135 1.878-3.559v-.166c0-5.568 4.513-10.084 10.081-10.084l.173.002c2.765.045 5.241 1.226 7.029 3.083a10.336 10.336 0 012.882 7.164c0 1.423.715 2.738 1.878 3.559a10.07 10.07 0 014.26 8.887 4.227 4.227 0 001.241 3.287 10.054 10.054 0 013.014 7.087z" fill="#b6e337"/><path d="M347.114 401.217c.056 5.602-4.654 10.185-10.254 10.185h-15.061c-2.651 0-4.881-4.583-4.854-10.185.013-2.774.556-5.279 1.427-7.086.412-.858.623-2.064.587-3.287a19.417 19.417 0 01-.009-.641c0-3.408.8-6.422 2.026-8.246.549-.82.887-2.135.887-3.559v-.166c0-5.568 2.138-10.084 4.773-10.084l.081.002h.092c2.765.045 5.241 1.226 7.029 3.083a10.336 10.336 0 012.882 7.164c0 1.423.715 2.738 1.878 3.559a10.07 10.07 0 014.26 8.887 4.227 4.227 0 001.241 3.287 10.05 10.05 0 013.015 7.087z" fill="#6cdc2d"/><path d="M347.114 401.217c.056 5.602-4.654 10.185-10.254 10.185h-10.223v-43.253l.173.002c2.765.045 5.241 1.226 7.029 3.083a10.336 10.336 0 012.882 7.164c0 1.423.715 2.738 1.878 3.559a10.07 10.07 0 014.26 8.887 4.227 4.227 0 001.241 3.287 10.05 10.05 0 013.014 7.086z" fill="#5dbf1d"/></g><g><path d="M221.235 455.898h11.126v28.835h-11.126z" fill="#d85e39"/><path d="M226.798 455.898h5.563v28.835h-5.563z" fill="#c94d31"/><path d="M251.222 455.898h11.126v28.835h-11.126z" fill="#d85e39"/><path d="M256.786 455.898h5.563v28.835h-5.563z" fill="#c94d31"/><path d="M281.21 455.898h11.126v28.835H281.21z" fill="#d85e39"/><path d="M286.773 455.898h5.563v28.835h-5.563z" fill="#c94d31"/><path d="M311.198 455.898h11.126v28.835h-11.126z" fill="#d85e39"/><path d="M316.761 455.898h5.563v28.835h-5.563z" fill="#c94d31"/><path d="M341.186 455.898h11.126v28.835h-11.126z" fill="#d85e39"/><path d="M346.749 455.898h5.563v28.835h-5.563z" fill="#c94d31"/><g><path d="M382.3 455.9v22.82a230.76 230.76 0 01-5.56 3.07c-1.84.99-3.7 1.95-5.57 2.89V455.9z" fill="#d85e39"/><path d="M382.3 455.9v22.82a230.76 230.76 0 01-5.56 3.07V455.9z" fill="#c94d31"/><path d="M412.29 455.9v2.86c-3.63 2.81-7.34 5.52-11.13 8.13V455.9z" fill="#d85e39"/><path d="M412.29 455.9v2.86c-1.84 1.42-3.69 2.82-5.57 4.18v-7.04z" fill="#c94d31"/></g><g><path d="M212.859 452.472v6.845h-15.813c-3.683 0-6.681 2.999-6.681 6.695v18.72h-6.846v-18.72c0-7.461 6.065-13.54 13.527-13.54z" fill="#6e6f83"/><path d="M212.859 455.895v3.423h-15.813c-3.683 0-6.681 2.999-6.681 6.695v18.72h-3.423v-18.72c0-5.586 4.518-10.118 10.104-10.118z" fill="#605f74"/><path d="M223.375 435.651h6.845v20.247h-6.845z" fill="#6e6f83"/><path d="M226.798 435.651h3.423v20.247h-3.423z" fill="#605f74"/><path d="M253.363 435.651h6.845v20.247h-6.845z" fill="#6e6f83"/><path d="M256.786 435.651h3.423v20.247h-3.423z" fill="#605f74"/><path d="M283.351 435.651h6.845v20.247h-6.845z" fill="#6e6f83"/><path d="M286.773 435.651h3.423v20.247h-3.423z" fill="#605f74"/><path d="M313.338 435.651h6.845v20.247h-6.845z" fill="#6e6f83"/><path d="M316.761 435.651h3.423v20.247h-3.423z" fill="#605f74"/><path d="M343.326 435.651h6.845v20.247h-6.845z" fill="#6e6f83"/><path d="M346.749 435.651h3.423v20.247h-3.423z" fill="#605f74"/><g><path d="M373.314 435.651h6.845v20.247h-6.845z" fill="#6e6f83"/><path d="M376.737 435.651h3.423v20.247h-3.423z" fill="#605f74"/></g><g><path d="M403.302 435.651h6.845v20.247h-6.845z" fill="#6e6f83"/><path d="M406.724 435.651h3.423v20.247h-3.423z" fill="#605f74"/></g><path d="M425.33 447.99c-6.33 5.6-12.94 10.88-19.81 15.82H205.74c-4.37 0-7.9-3.54-7.9-7.91a7.889 7.889 0 017.9-7.91z" fill="#f99568"/><path d="M415.94 455.9c-3.4 2.72-6.88 5.36-10.42 7.91H205.74c-4.37 0-7.9-3.54-7.9-7.91z" fill="#ed784a"/></g><path d="M244.01 496.41c0 1.67-1.35 3.02-3.02 3.02h-5.95c-.74 0-1.41.3-1.9.79a2.68 2.68 0 001.9 4.57h.19c1.07 0 2.04.43 2.74 1.14.71.7 1.14 1.67 1.14 2.74a3.8 3.8 0 01-1.1 2.7c-8.59-.59-17.07-1.61-25.41-3.05a4.288 4.288 0 014.26-3.87h1.08c1.48 0 2.68-1.2 2.68-2.68v-1.14c0-1.48-1.2-2.68-2.68-2.68h-1.48a3.138 3.138 0 01-3.14-3.14 3.138 3.138 0 013.14-3.14c2.64 0 4.77-2.13 4.77-4.77v-2.17h11.13v3.88a4.78 4.78 0 004.78 4.78h3.85c1.67 0 3.02 1.35 3.02 3.02z" fill="#63dbfa"/><path d="M333.97 496.41c0 1.67-1.35 3.02-3.02 3.02h-5.94c-.75 0-1.42.3-1.9.79-.49.48-.79 1.15-.79 1.89 0 .41.09.8.26 1.14-7.69 2.07-15.53 3.79-23.5 5.13.17-2.2 2.02-3.93 4.26-3.93h4.56c1.49 0 2.69-1.2 2.69-2.68v-1.14c0-1.48-1.2-2.68-2.69-2.68h-1.48a3.138 3.138 0 01-3.14-3.14 3.138 3.138 0 013.14-3.14c2.64 0 4.78-2.13 4.78-4.77v-2.17h11.12v3.88a4.78 4.78 0 004.78 4.78h3.85c1.67 0 3.02 1.35 3.02 3.02z" fill="#3dcaea"/><path d="M274.48 507.59c0 1.18-.48 2.25-1.25 3.03-.37.37-.8.68-1.3.88l-.01.01-1.03.06-.54.03c-.98.06-1.97.11-2.95.15-.31.01-.62.03-.93.04-1.42.06-2.85.1-4.28.13-.73.02-1.46.04-2.19.05-1.07.02-2.14.03-3.21.02-.26.01-.53.01-.79.01-2.01 0-4.01-.02-6.01-.08-.47-.32-1.02-.51-1.63-.51h-3.47c-2.14 0-3.88-1.73-3.88-3.88 0-1.07.43-2.04 1.14-2.74.7-.71 1.67-1.14 2.74-1.14h.94c2.98 0 5.39-2.41 5.39-5.39v-13.53h11.13v2.17c0 2.64 2.14 4.77 4.78 4.77.87 0 1.65.35 2.21.92.57.57.92 1.35.92 2.22s-.35 1.65-.92 2.22c-.56.57-1.34.92-2.21.92h-1.49a2.68 2.68 0 000 5.36h4.57c2.36 0 4.27 1.92 4.27 4.28z" fill="#63dbfa"/><path d="M278.343 499.764a2.862 2.862 0 012.862 2.862v1.421a5.565 5.565 0 1011.13 0v-19.313h-11.131v4.399a2.869 2.869 0 01-2.869 2.869h-1.606c-1.068 0-2.04.438-2.738 1.137a3.876 3.876 0 00-1.042 3.601c.398 1.808 2.113 3.026 3.964 3.026h1.43zM353.95 492.58c-4.2 1.75-8.46 3.38-12.77 4.9v-12.75h11.13v5.26c0 1.14.67 2.13 1.64 2.59z" fill="#3dcaea"/><path d="M198.54 499.71v.18c0 1.35-1.09 2.44-2.43 2.44h-3.08c-.79 0-1.49.32-2.01.83-.13.13-.25.28-.35.43-4.63-1.22-9.21-2.56-13.73-4.04.26-1.15 1.29-2 2.51-2h1.93c.58 0 1.11-.23 1.49-.62.39-.38.62-.91.62-1.49 0-1.16-.94-2.11-2.11-2.11h-.96c-.7 0-1.33-.28-1.79-.74-.46-.45-.74-1.09-.74-1.78 0-1.39 1.13-2.52 2.53-2.52h.58c1.39 0 2.52-1.13 2.52-2.53v-1.03h6.85v.53c0 1.32 1.06 2.38 2.38 2.38h.88c.67 0 1.28.27 1.72.71.44.45.71 1.05.71 1.73 0 1.34-1.09 2.43-2.43 2.43h-1.05c-.66 0-1.26.27-1.69.69a2.39 2.39 0 001.69 4.08h3.53c1.34 0 2.43 1.09 2.43 2.43z" fill="#63dbfa"/><g><path d="M438.38 435.65c-1.14 1.16-2.3 2.31-3.46 3.43-1.18 1.16-2.36 2.3-3.56 3.42H218.92c-.94 0-1.8-.38-2.42-1s-1.01-1.48-1.01-2.42c0-1.89 1.54-3.43 3.43-3.43z" fill="#6e6f83"/><path d="M434.92 439.08c-1.18 1.16-2.36 2.3-3.56 3.42H218.92c-.94 0-1.8-.38-2.42-1s-1.01-1.48-1.01-2.42z" fill="#605f74"/></g><path d="M245.817 490.865l-5.56.137a2.425 2.425 0 010-4.85l5.56-.137a2.425 2.425 0 010 4.85z" fill="#92eaff"/><g fill="#fff"><path d="M303.88 490.046l-6.839.137a2.425 2.425 0 010-4.85l6.839-.137a2.425 2.425 0 010 4.85zM331.833 489.484l-3.56.137a2.425 2.425 0 010-4.85l3.56-.137a2.425 2.425 0 010 4.85z"/></g></g><path d="M450.77 422.14c-1.85 2.17-3.74 4.31-5.66 6.41-.73.8-1.46 1.59-2.2 2.38H69.09c-.74-.79-1.47-1.58-2.2-2.38-1.92-2.1-3.81-4.24-5.65-6.41z" fill="#00a23e"/><path d="M450.77 422.14c-1.85 2.17-3.74 4.31-5.66 6.41-.73.8-1.46 1.59-2.2 2.38H256.79v-8.79z" fill="#008839"/><g><path d="M192.376 103.4c0-.063.005-.124.005-.187 0-11.447-9.28-20.727-20.727-20.727a20.66 20.66 0 00-7.693 1.481c-4.596-8.234-13.391-13.805-23.49-13.805-13.116 0-24.032 9.393-26.405 21.817a15.303 15.303 0 00-2.165-.157c-7.131 0-13.105 4.936-14.702 11.577h95.177z" fill="#fff"/><path d="M172.153 103.4c0-.036.003-.071.003-.107 0-6.582-5.336-11.918-11.918-11.918-1.564 0-3.056.304-4.424.852-2.643-4.735-7.7-7.938-13.507-7.938-7.542 0-13.819 5.401-15.183 12.545a8.813 8.813 0 00-1.245-.09c-4.101 0-7.536 2.839-8.454 6.657h54.728z" fill="#dff7fd"/></g><g><path d="M294.035 144.107c-.001-.088-.006-.174-.006-.262 0-16.038 13.001-29.039 29.038-29.039 3.81 0 7.445.741 10.779 2.075 6.439-11.536 18.76-19.341 32.91-19.341 18.375 0 33.669 13.159 36.993 30.566.991-.142 2.003-.22 3.033-.22 9.991 0 18.361 6.916 20.598 16.22H294.035z" fill="#fff"/><path d="M322.368 144.107c0-.05-.004-.1-.004-.151 0-9.222 7.476-16.698 16.698-16.698 2.191 0 4.281.426 6.198 1.193 3.703-6.634 10.788-11.122 18.924-11.122 10.566 0 19.36 7.567 21.272 17.576.57-.082 1.152-.126 1.744-.126 5.745 0 10.558 3.977 11.845 9.327h-76.677z" fill="#dff7fd"/></g><path d="M274.48 507.59c0 1.18-.48 2.25-1.25 3.03-.37.37-.8.68-1.3.88-.34.03-.69.05-1.04.07l-.54.03c-.98.06-1.97.11-2.95.15-.31.01-.62.03-.93.04-1.42.06-2.85.1-4.28.13-.73.02-1.46.04-2.19.05-1.07.02-2.14.03-3.21.03v-27.27h5.56v2.17c0 2.64 2.14 4.77 4.78 4.77.87 0 1.65.35 2.21.92.57.57.92 1.35.92 2.22s-.35 1.65-.92 2.22c-.56.57-1.34.92-2.21.92h-1.49a2.68 2.68 0 000 5.36h4.57c2.36 0 4.27 1.92 4.27 4.28z" fill="#3dcaea"/></svg>