
Open SVG
Paste markup
Demo
Contribute
About
Powered by the incredible SVGO


2.79k → 2.72k 97.34%
<svg viewBox="0 0 512 512" xmlns="http://www.w3.org/2000/svg"><g data-name="filled outline"><path d="M328 176v64H184v-64h-40v104h224V176z" fill="#b94137"/><path d="M208 88l6.2-3.1A108.629 108.629 0 00256 48a108.629 108.629 0 0041.8 36.9L304 88v8h-96z" fill="#c7463b"/><path d="M176 184h160v64H176z" fill="#cdcdcd"/><path d="M184.834 104.422a7.969 7.969 0 01-3.571-.847l-18.53-9.264A33.7 33.7 0 01144 64a8 8 0 0116 0 17.792 17.792 0 009.888 16l18.53 9.265a8 8 0 01-3.584 15.157zM319.166 104.422a8 8 0 01-3.584-15.157L334.111 80A17.791 17.791 0 00344 64a8 8 0 0116 0 33.7 33.7 0 01-18.734 30.311l-18.529 9.264a7.969 7.969 0 01-3.571.847z" fill="#c38325"/><path d="M368 136v8H144v-8l24-48h176z" fill="#dc4d41"/><path d="M79.987 264a7.959 7.959 0 01-3.572-.847l-17.682-8.841A33.7 33.7 0 0140 224a8 8 0 0116 0 17.792 17.792 0 009.888 16l17.683 8.842A8 8 0 0179.987 264zM429.546 265.232a8 8 0 01-3.584-15.157L446.111 240A17.791 17.791 0 00456 224a8 8 0 0116 0 33.7 33.7 0 01-18.734 30.311l-20.148 10.075a7.971 7.971 0 01-3.572.846z" fill="#c38325"/><path d="M328 400l-32-16a40 40 0 00-40-40 40 40 0 00-40 40l-32 16v-88h144z" fill="#a83b32"/><path d="M144 280v208h40V384a72 72 0 0172-72 72 72 0 0172 72v104h40V280z" fill="#dbdbdb"/><path d="M144 280h224v16H144z" fill="#cdcdcd"/><path d="M56 328h96v160H56zM456 488h-96V328h96z" fill="#b94137"/><path d="M336 176v14.42a208.3 208.3 0 01-25.59 1.58H201.59a208.3 208.3 0 01-25.59-1.58V176z" fill="#a8a8a8"/><path d="M126.63 391.99a24 24 0 01-45.25 0c-.27-.74 5.5-1.5 5.31-2.28a23.919 23.919 0 01-.661-7.032c.126-2.308-5.414-4.558-4.659-6.688a24 24 0 0145.25 0c.27.74-2.5 1.51-2.31 2.29.429 1.745-.346 3.491-.309 5.214.064 2.939 3.581 5.811 2.629 8.496z" fill="#cdcdcd"/><path d="M56 440h96v48H56z" fill="#ea9d2d"/><path d="M126.63 391.99H81.38a21.472 21.472 0 01-.69-2.28 23.884 23.884 0 01.68-13.72h45.25a21.649 21.649 0 01.69 2.29 23.85 23.85 0 01-.68 13.71z" fill="#a83b32"/><path d="M152 248v56H24v-8l40-48z" fill="#dc4d41"/><path d="M114.42 248l-40 48H53.58l40-48zM152 248v2.9L114.42 296H93.58l40.01-48z" fill="#c7463b"/><path d="M200 208h16v16h-16z" fill="#6b9777"/><path d="M232 208h16v16h-16z" fill="#85bc94"/><path d="M264 208h16v16h-16zM296 208h16v16h-16z" fill="#6b9777"/><circle cx="256" cy="40" fill="#a83b32" r="16"/><path d="M24 296h128v32H24z" fill="#3b869e"/><path d="M456 488h-96v-48h96z" fill="#ea9d2d"/><path d="M488 296v8H360v-56h88z" fill="#dc4d41"/><path d="M458.41 296h-20.82l-40.01-48h20.83zM418.41 296h-20.82L360 250.9V248h18.41z" fill="#c7463b"/><path d="M360 296h128v32H360z" fill="#3b869e"/><path d="M430.637 392.99a24 24 0 01-45.25 0c-.27-.74 5.5-1.5 5.31-2.28a23.919 23.919 0 01-.661-7.032c.126-2.308-5.414-4.558-4.659-6.688a24 24 0 0145.25 0c.27.74-2.5 1.51-2.31 2.29.429 1.745-.346 3.491-.309 5.214.064 2.939 3.581 5.811 2.629 8.496z" fill="#cdcdcd"/><path d="M360 296h16v32h-16zM136 296h16v32h-16z" fill="#1f6c8c"/><path d="M360 328h96v16h-96zM56 328h96v16H56zM144 176h32v14.42a205.881 205.881 0 01-24.83-4.63L144 184zM368 176v8l-7.17 1.79a205.881 205.881 0 01-24.83 4.63V176z" fill="#a83b32"/><path d="M432 104a71.721 71.721 0 01-54.33 69.58l-16.84 4.21a207.5 207.5 0 01-50.42 6.21H201.59a207.5 207.5 0 01-50.42-6.21l-16.84-4.21A71.715 71.715 0 0180 104l10.99 10.99A71.741 71.741 0 00141.71 136h46.51a151.274 151.274 0 0034.82-4.06A151.188 151.188 0 00256 120a151.575 151.575 0 0067.78 16h46.51a71.741 71.741 0 0050.72-21.01z" fill="#1f6c8c"/><path d="M429.61 106.39a71.751 71.751 0 01-51.94 51.19l-16.84 4.21a207.5 207.5 0 01-50.42 6.21H201.59a207.5 207.5 0 01-50.42-6.21l-16.84-4.21a71.745 71.745 0 01-51.94-51.19l8.6 8.6A71.741 71.741 0 00141.71 136h46.51a151.274 151.274 0 0034.82-4.06A151.188 151.188 0 00256 120a151.575 151.575 0 0067.78 16h46.51a71.741 71.741 0 0050.72-21.01z" fill="#3b869e"/><g fill="#c7463b"><path d="M216.95 88l-23.96 47.93h-.01c-1.59.04-3.17.07-4.76.07h-13.17l24-48zM256.95 88l-.95 1.89-19.02 38.05q-6.87 2.34-13.94 4c-2.21.52-4.42 1-6.66 1.41L239.05 88z"/><path d="M295.62 133.35a149.326 149.326 0 01-20.6-5.41L256 89.89l-.95-1.89h17.9zM336.94 136h-13.16c-1.59 0-3.17-.02-4.76-.07L295.06 88h17.88z"/></g><path d="M104 416a32.013 32.013 0 0032-31.945v-.053-.091A32 32 0 10104 416zm3.81-16.464A16.02 16.02 0 0190.158 392h27.672a15.94 15.94 0 01-10.018 7.534zm-7.624-31.079a16.139 16.139 0 013.841-.467 16.019 16.019 0 0113.832 8.01h-27.7c.057-.1.1-.2.162-.3a15.9 15.9 0 019.867-7.245zM200 208h16v16h-16zM232 208h16v16h-16zM264 208h16v16h-16zM296 208h16v16h-16z"/><path d="M494.15 290.886v-.007l-34.164-41A33.664 33.664 0 00472 224a8 8 0 00-16 0 17.792 17.792 0 01-9.888 16H376v-57.754l3.612-.9A79.61 79.61 0 00440 104a8 8 0 00-13.657-5.657l-10.992 10.993a63.262 63.262 0 01-42.439 18.6l-20.981-41.963A33.73 33.73 0 00360 64a8 8 0 00-16 0 17.8 17.8 0 01-9.88 16h-28.233l-4.516-2.258a100.481 100.481 0 01-21.589-14.562 100.454 100.454 0 01-6.625-6.421 24 24 0 10-34.315 0 101.344 101.344 0 01-28.219 20.987L206.113 80h-36.234A17.807 17.807 0 01160 64a8 8 0 00-16 0 33.668 33.668 0 0013.52 27.072l-18.432 36.864a63.265 63.265 0 01-42.439-18.6L85.657 98.343A8 8 0 0072 104a79.61 79.61 0 0060.388 77.343l3.612.9V240H65.888A17.792 17.792 0 0156 224a8 8 0 00-16 0 33.664 33.664 0 0012.018 25.882l-34.164 41v.007A7.963 7.963 0 0016 296v32a8 8 0 008 8h24v152a8 8 0 008 8h400a8 8 0 008-8V336h24a8 8 0 008-8v-32a7.963 7.963 0 00-1.85-5.114zM451.747 288l-26.667-32h19.173l26.666 32zm-40 0l-26.667-32h19.173l26.667 32zM81.08 288l26.667-32h19.173l-26.667 32zM328 192v48H184v-48zm-176-5.754l16 4V240h-16zm-8 74.25V288h-22.92zm16-4.5h192v16H160zm208 4.5L390.92 288H368zM344 240v-49.754l16-4V240zm-11.056-112l-16-32h22.112l16 32zm-80.522-15.155q-5 2.5-10.191 4.588L252.945 96h6.11l10.714 21.433q-5.183-2.1-10.191-4.588a8 8 0 00-7.156 0zm-55.335 14.87L212.944 96h22.113l-14.093 28.193a144.325 144.325 0 01-23.877 3.522zm93.949-3.522L276.943 96h22.113l15.857 31.715a144.325 144.325 0 01-23.877-3.522zM256 32a8 8 0 11-8 8 8.009 8.009 0 018-8zm-2.054 31.906c.678.058 1.361.094 2.054.094s1.394-.037 2.08-.1a117.005 117.005 0 0011.12 11.28q2.842 2.508 5.833 4.82h-38.09a117.522 117.522 0 0017.003-16.094zM172.944 96h22.112l-16 32h-22.112zm-80.761 30.765A79.12 79.12 0 00141.709 144h46.514a159.937 159.937 0 0039.757-5.064 8.042 8.042 0 001.113-.3A159.8 159.8 0 00256 128.888a159.742 159.742 0 0026.9 9.749 7.942 7.942 0 001.135.3A159.876 159.876 0 00323.777 144h46.514a79.12 79.12 0 0049.526-17.235 63.634 63.634 0 01-44.086 39.056l-16.844 4.211A200.084 200.084 0 01310.409 176H201.591a200.084 200.084 0 01-48.478-5.968l-16.844-4.211a63.634 63.634 0 01-44.086-39.056zM67.747 256H86.92l-26.667 32H41.081zM32 304h112v16H32zm112 32v96H64v-96zM64 448h80v32H64zm96-160h192v192h-16v-96a80 80 0 00-160 0v96h-16zm160 99.056l-16.267-8.133a48 48 0 00-95.466 0L192 387.056V384a64 64 0 01128 0zM192 480v-75.056l27.578-13.789A8 8 0 00224 384a32 32 0 0164 0 8 8 0 004.422 7.155L320 404.944V480zm256 0h-80v-32h80zm0-48h-80v-96h80zm32-112H368v-16h112z"/><path d="M400.364 415.091a32.02 32.02 0 10-24.372-31.164v.144a32.053 32.053 0 0024.372 31.02zm3.812-15.539a15.939 15.939 0 01-10.019-7.534h27.672a16.02 16.02 0 01-17.653 7.534zm-4.482-29.223a15.892 15.892 0 018.263-2.323 16.141 16.141 0 013.842.467 15.9 15.9 0 019.871 7.246c.059.1.1.2.162.3h-27.7a15.9 15.9 0 015.562-5.69z"/></g></svg>