
Open SVG
Paste markup
Demo
Contribute
About
Powered by the incredible SVGO


557 bytes → 564 bytes 101.26%
<svg viewBox="0 0 512 512"  xmlns="http://www.w3.org/2000/svg"><path d="M347 90h120v91H347z" fill="#ffbe40"/><path d="M407 90h60v91h-60z" fill="#ff9f40"/><path d="M347 211h120v90H347z" fill="#ffbe40"/><path d="M407 211h60v90h-60z" fill="#ff9f40"/><path d="M347 331h120v106H347z" fill="#ffbe40"/><path d="M407 331h60v106h-60z" fill="#ff9f40"/><path d="M317 407h180v90H317z" fill="#ffdf40"/><path d="M407 407h90v90h-90z" fill="#ffbe40"/><path d="M392 452h30v45h-30z" fill="#b37059"/><path d="M407 452h15v45h-15z" fill="#995a4d"/><path d="M512 60v15c0 10.499-7.5 45-105 45S302 85.499 302 75V60h15c54.3 0 71.1-25.8 75-32.999V0h30v27.299C426.2 34.799 443.301 60 497 60z" fill="#ff7f40"/><path d="M512 60v15c0 10.499-7.5 45-105 45V0h15v27.299C426.2 34.799 443.301 60 497 60z" fill="#f25a3c"/><path d="M512 301v15c0 10.499-7.5 45-105 45s-105-34.501-105-45v-15h15c27.599 0 29.7-12.299 30-15h120c.3 2.701 2.401 15 30 15z" fill="#ff7f40"/><path d="M497 301h15v15c0 10.499-7.5 45-105 45v-75h60c.3 2.701 2.401 15 30 15z" fill="#f25a3c"/><path d="M512 181v15c0 10.499-7.5 45-105 45s-105-34.501-105-45v-15h15c27.599 0 29.7-12.299 30-15h120c.3 2.701 2.401 15 30 15z" fill="#ff7f40"/><path d="M497 181h15v15c0 10.499-7.5 45-105 45v-75h60c.3 2.701 2.401 15 30 15z" fill="#f25a3c"/><path d="M45 90h120v91H45z" fill="#ffbe40"/><path d="M105 90h60v91h-60z" fill="#ff9f40"/><path d="M45 211h120v90H45z" fill="#ffbe40"/><path d="M105 211h60v90h-60z" fill="#ff9f40"/><path d="M45 331h120v106H45z" fill="#ffbe40"/><path d="M105 331h60v106h-60z" fill="#ff9f40"/><path d="M15 407h180v90H15z" fill="#ffdf40"/><path d="M105 407h90v90h-90z" fill="#ffbe40"/><path d="M90 452h30v45H90z" fill="#b37059"/><path d="M105 452h15v45h-15z" fill="#995a4d"/><path d="M0 482h512v30H0z" fill="#4d5e80"/><path d="M256 482h256v30H256z" fill="#3d4566"/><path d="M210 60v15c0 10.499-7.5 45-105 45S0 85.499 0 75V60h15c54.3 0 71.1-25.8 75-32.999V0h30v27.299C124.2 34.799 141.301 60 195 60z" fill="#ff7f40"/><path d="M210 60v15c0 10.499-7.5 45-105 45V0h15v27.299C124.2 34.799 141.301 60 195 60z" fill="#f25a3c"/><path d="M210 301v15c0 10.499-7.5 45-105 45S0 326.499 0 316v-15h15c27.599 0 29.7-12.299 30-15h120c.3 2.701 2.401 15 30 15z" fill="#ff7f40"/><path d="M195 301h15v15c0 10.499-7.5 45-105 45v-75h60c.3 2.701 2.401 15 30 15z" fill="#f25a3c"/><path d="M210 181v15c0 10.499-7.5 45-105 45S0 206.499 0 196v-15h15c27.599 0 29.7-12.299 30-15h120c.3 2.701 2.401 15 30 15z" fill="#ff7f40"/><path d="M195 181h15v15c0 10.499-7.5 45-105 45v-75h60c.3 2.701 2.401 15 30 15z" fill="#f25a3c"/></svg>