
Open SVG
Paste markup
Demo
Contribute
About
Powered by the incredible SVGO


1.21k → 1.1k 91.35%
<svg  viewBox="0 0 512 512"  xmlns="http://www.w3.org/2000/svg"><path d="M480.996 436.996v60h-150v-75h135c8.402 0 15 6.602 15 15zm0 0" fill="#ffb64c"/><path d="M510.414 430.29l-31-60a15.007 15.007 0 00-13.418-8.294H334c-8.29 0-15 6.711-15 15l5.992 60c0 8.293 6.707 15 15 15h157.004c5.2 0 10.02-2.695 12.758-7.117a14.971 14.971 0 00.66-14.59zm0 0" fill="#ff641a"/><path d="M270.996 15v32c0 8.402-6.598 15-15 15C247.598 62 241 55.402 241 47V15c0-8.402 6.598-15 14.996-15 8.402 0 15 6.598 15 15zm0 0" fill="#f03800"/><path d="M270.996 15v32c0 8.402-6.598 15-15 15V0c8.402 0 15 6.598 15 15zm0 0" fill="#cd0000"/><path d="M255.996 32C214.598 32 181 65.598 181 107v30c0 8.398 6.598 15 15 15h119.996c8.402 0 15-6.602 15-15v-30c0-41.402-33.598-75-75-75zm0 0" fill="#ff641a"/><path d="M330.996 107v30c0 8.398-6.598 15-15 15h-60V32c41.402 0 75 33.598 75 75zm0 0" fill="#f03800"/><path d="M360.996 495.496v1.5H151v-1.5L181 195.5c.898-8.102 8.098-14.102 16.5-13.5h116.996c8.399-.602 15.602 5.398 16.5 13.5l22.8 226.496zm0 0" fill="#c5d3dd"/><path d="M360.996 495.496v1.5h-105V182h58.5c8.399-.602 15.602 5.398 16.5 13.5l22.8 226.496zm0 0" fill="#9facba"/><g fill="#714c2f"><path d="M270.996 257c0 8.398-6.598 14.996-15 14.996-8.398 0-14.996-6.598-14.996-14.996 0-8.402 6.598-15 14.996-15 8.402 0 15 6.598 15 15zm0 0M270.996 316.996c0 8.402-6.598 15-15 15-8.398 0-14.996-6.598-14.996-15 0-8.398 6.598-15 14.996-15 8.402 0 15 6.602 15 15zm0 0M270.996 107v30c0 8.398-6.598 15-15 15-8.398 0-14.996-6.602-14.996-15v-30c0-8.402 6.598-15 14.996-15 8.402 0 15 6.598 15 15zm0 0"/></g><path d="M270.996 316.996c0 8.402-6.598 15-15 15v-30c8.402 0 15 6.602 15 15zm0 0M270.996 257c0 8.398-6.598 14.996-15 14.996V242c8.402 0 15 6.598 15 15zm0 0M270.996 107v30c0 8.398-6.598 15-15 15V92c8.402 0 15 6.598 15 15zm0 0" fill="#523522"/><path d="M300.996 436.996v60H211v-60c0-24.898 20.098-45 44.996-45 24.902 0 45 20.102 45 45zm0 0M360.996 137v60c0 8.398-6.598 15-15 15H166c-8.402 0-15-6.602-15-15v-60c0-8.402 6.598-15 15-15h179.996c8.402 0 15 6.598 15 15zm0 0" fill="#deecf1"/><path d="M300.996 436.996v60h-45v-105c24.902 0 45 20.102 45 45zm0 0M360.996 137v60c0 8.398-6.598 15-15 15h-90v-90h90c8.402 0 15 6.598 15 15zm0 0" fill="#c5d3dd"/><path d="M511.996 496.996c0 8.402-6.598 15-15 15H106c-8.402 0-15-6.598-15-15s6.598-15 15-15h390.996c8.402 0 15 6.598 15 15zm0 0" fill="#7fe881"/><path d="M511.996 496.996c0 8.402-6.598 15-15 15h-241v-30h241c8.402 0 15 6.598 15 15zm0 0" fill="#5bc980"/><path d="M76 152H15c-8.293 0-15-6.71-15-15 0-8.293 6.707-15 15-15h61c8.29 0 15 6.707 15 15 0 8.29-6.71 15-15 15zm0 0" fill="#ffd396"/><path d="M496.996 152h-61c-8.289 0-15-6.71-15-15 0-8.293 6.711-15 15-15h61c8.29 0 15 6.707 15 15 0 8.29-6.71 15-15 15zm0 0" fill="#ffb64c"/><path d="M35.16 264.5c-4.144-7.18-1.683-16.352 5.492-20.496l51.957-30c7.121-4.16 16.332-1.7 20.493 5.496 4.148 7.176 1.687 16.348-5.493 20.492l-51.957 30c-7.152 4.13-16.343 1.692-20.492-5.492zm0 0" fill="#ffd396"/><path d="M398.895 54.5c-4.149-7.18-1.688-16.348 5.492-20.492l51.957-30C463.46-.125 472.676 2.32 476.836 9.5c4.144 7.18 1.684 16.348-5.492 20.492l-51.957 30c-7.153 4.133-16.348 1.692-20.492-5.492zm0 0" fill="#ffb64c"/><path d="M92.61 59.992l-51.958-30C33.477 25.848 31.016 16.68 35.16 9.5c4.145-7.18 13.317-9.625 20.492-5.492l51.957 30c7.18 4.144 9.641 13.312 5.493 20.492-4.157 7.195-13.352 9.617-20.493 5.492zm0 0" fill="#ffd396"/><path d="M456.344 269.992l-51.957-30c-7.18-4.148-9.64-13.316-5.492-20.492 4.144-7.195 13.312-9.656 20.492-5.496l51.957 30c7.176 4.148 9.636 13.316 5.492 20.496-4.156 7.195-13.356 9.613-20.492 5.492zm0 0" fill="#ffb64c"/></svg>