<?xml version="1.0"?>
<svg xmlns="http://www.w3.org/2000/svg" id="Line_expand" data-name="Line expand" width="512" height="512" viewBox="0 0 512 512"><g id="_13_copy_3" data-name="13 copy 3"><g><path d="M81.542,383.385A214.365,214.365,0,0,1,40,256a218.294,218.294,0,0,1,2.54-33.221l15.813,2.442A202.327,202.327,0,0,0,56,256,198.459,198.459,0,0,0,94.458,373.939Z"/><path d="M256,472a216.444,216.444,0,0,1-58.149-7.919l4.3-15.412A201.149,201.149,0,0,0,325.23,443.7l5.54,15.01A215.284,215.284,0,0,1,256,472Z"/><path d="M447.664,355.7,433.475,348.3a200.87,200.87,0,0,0,18.83-130.773l15.7-3.06A216.875,216.875,0,0,1,447.664,355.7Z"/><path d="M371.379,92.616a200.169,200.169,0,0,0-215.373-9.865L147.994,68.9A216.17,216.17,0,0,1,380.621,79.554Z"/><path d="M376.153,210.765A128.041,128.041,0,0,0,173.179,157.4L162.82,145.208a144.046,144.046,0,0,1,228.347,60.027Z"/><path d="M256,399a142.924,142.924,0,0,1-84.711-27.541l9.422-12.932a128.02,128.02,0,0,0,165.643-12.862L357.647,357A143.079,143.079,0,0,1,256,399Z"/><path d="M492.137,65.278c-6.022-26.381-18.85-42.587-36.12-45.632-16.872-2.98-34.324,7.877-49.149,30.556-12.34,18.879-22,44.332-26.493,69.834-4.195,23.791-1.844,44.973,6.8,61.257a56.906,56.906,0,0,0,13.915,17.288L340.642,456.7a28,28,0,0,0,22.4,33.959l21.387,3.772a28,28,0,0,0,32.664-24.25L448.724,205.7a57.551,57.551,0,0,0,16.7-10.611c13.69-12.347,23.143-31.447,27.338-55.238C497.3,114.093,497.076,86.911,492.137,65.278Zm-90.931,403a12,12,0,0,1-14,10.394L365.82,474.9a12,12,0,0,1-9.6-14.552l59.361-253.488a44.2,44.2,0,0,0,14.811,2.542q.89,0,1.78-.035Zm75.8-331.2c-4.51,25.577-14.614,39.205-22.3,46.134-8.8,7.931-19.456,11.49-29.252,9.763s-18.6-8.718-24.149-19.18c-4.85-9.138-9.684-25.4-5.174-50.978,4.074-23.1,13.094-46.976,24.129-63.857,4.845-7.414,17.051-23.79,30.265-23.79a15.586,15.586,0,0,1,2.712.236C477.068,39.6,484.889,92.358,477,137.075Z"/><path d="M186.591,456.646l-59.1-252.381a38.015,38.015,0,0,0,25.673-42.744l-7.293-41.361L126.42,9.861,110.663,12.64l18.06,102.42-15.758,2.778L94.906,15.418,79.149,18.2l18.059,102.42L81.452,123.4,63.392,20.975,47.635,23.753l18.06,102.42-15.757,2.778L31.878,26.531,16.122,29.31l19.448,110.3,7.293,41.362a38.064,38.064,0,0,0,36.449,31.393l30.829,257.764A27.992,27.992,0,0,0,137.98,494.8a27.817,27.817,0,0,0,4.825-.421l21.386-3.771a28,28,0,0,0,22.4-33.96ZM58.62,178.192l-5.9-33.484L131.5,130.816l5.9,33.484a22.025,22.025,0,0,1-17.845,25.486l-35.454,6.251A22.024,22.024,0,0,1,58.62,178.192ZM169.346,469.639a11.888,11.888,0,0,1-7.933,5.21l-21.387,3.771a12,12,0,0,1-14-10.393l-30.844-257.9,16.608-2.929L171.013,460.3A11.891,11.891,0,0,1,169.346,469.639Z"/><path d="M256,336a7.98,7.98,0,0,1-5.585-2.272L182.491,267.5a48,48,0,1,1,67.018-68.735L256,205.1l6.491-6.329A48,48,0,1,1,329.509,267.5l-11.924,11.626-11.17-11.455,11.924-11.627a32,32,0,1,0-44.678-45.823L261.585,222a8,8,0,0,1-11.17,0l-12.076-11.774a32,32,0,1,0-44.678,45.823L256,316.827l35.44-34.555,11.17,11.456-41.025,40A7.98,7.98,0,0,1,256,336Z"/></g></g></svg>
