
Open SVG
Paste markup
Demo
Contribute
About
Powered by the incredible SVGO


1.64k → 1.48k 90.21%
<svg height="512" viewBox="0 0 300 300" width="512" xmlns="http://www.w3.org/2000/svg"><circle cx="144" cy="128" fill="#fff0fd" r="92"/><g fill="#4c241d"><circle cx="84.397" cy="54.093" r="4.276"/><circle cx="244.397" cy="114.093" r="4.276"/><circle cx="56.397" cy="90.093" r="4.276"/></g><circle cx="228" cy="60" fill="#ffce56" r="12"/><path d="M228 76c-8.824 0-16-7.178-16-16s7.176-16 16-16 16 7.178 16 16-7.176 16-16 16zm0-24c-4.41 0-8 3.588-8 8s3.59 8 8 8 8-3.588 8-8-3.59-8-8-8z" fill="#4c241d"/><path d="M88 104h124v48H88z" fill="#edebdc"/><path d="M212 156H88c-2.211 0-4-1.791-4-4v-48c0-2.209 1.789-4 4-4h124c2.211 0 4 1.791 4 4v48c0 2.209-1.789 4-4 4zm-120-8h116v-40H92z" fill="#4c241d"/><path d="M32 172h236v68H32z" fill="#edebdc"/><path d="M268 244H32c-2.211 0-4-1.791-4-4v-68c0-2.209 1.789-4 4-4h236c2.211 0 4 1.791 4 4v68c0 2.209-1.789 4-4 4zm-232-8h228v-60H36z" fill="#4c241d"/><path d="M108 180h12v60h-12z" fill="#b5a19c"/><path d="M120 244h-12c-2.211 0-4-1.791-4-4v-60c0-2.209 1.789-4 4-4h12c2.211 0 4 1.791 4 4v60c0 2.209-1.789 4-4 4zm-8-8h4v-52h-4z" fill="#4c241d"/><path d="M132 180h12v60h-12z" fill="#b5a19c"/><path d="M144 244h-12c-2.211 0-4-1.791-4-4v-60c0-2.209 1.789-4 4-4h12c2.211 0 4 1.791 4 4v60c0 2.209-1.789 4-4 4zm-8-8h4v-52h-4z" fill="#4c241d"/><path d="M80 152h140v20H80z" fill="#edebdc"/><path d="M220 176H80c-2.211 0-4-1.791-4-4v-20c0-2.209 1.789-4 4-4h140c2.211 0 4 1.791 4 4v20c0 2.209-1.789 4-4 4zm-136-8h132v-12H84z" fill="#4c241d"/><path d="M156 180h12v60h-12z" fill="#b5a19c"/><path d="M168 244h-12c-2.211 0-4-1.791-4-4v-60c0-2.209 1.789-4 4-4h12c2.211 0 4 1.791 4 4v60c0 2.209-1.789 4-4 4zm-8-8h4v-52h-4z" fill="#4c241d"/><path d="M180 180h12v60h-12z" fill="#b5a19c"/><path d="M192 244h-12c-2.211 0-4-1.791-4-4v-60c0-2.209 1.789-4 4-4h12c2.211 0 4 1.791 4 4v60c0 2.209-1.789 4-4 4zm-8-8h4v-52h-4z" fill="#4c241d"/><path d="M32 260v-20h236v20" fill="#a9ba5a"/><path d="M268 264c-2.211 0-4-1.791-4-4v-16H36v16c0 2.209-1.789 4-4 4s-4-1.791-4-4v-20c0-2.209 1.789-4 4-4h236c2.211 0 4 1.791 4 4v20c0 2.209-1.789 4-4 4z" fill="#4c241d"/><path d="M149.967 140L108 164v16h84v-16z" fill="#edebdc"/><path d="M192 184h-84c-2.211 0-4-1.791-4-4v-16c0-1.436.77-2.76 2.016-3.473l41.969-24a3.998 3.998 0 013.969 0l42.031 24A4 4 0 01196 164v16c0 2.209-1.789 4-4 4zm-80-8h76v-9.678l-38.031-21.715L112 166.32z" fill="#4c241d"/><path d="M256 228h-32l16-64z" fill="#a9ba5a"/><path d="M256 232h-32a4 4 0 01-3.879-4.971l16-64a3.999 3.999 0 017.758 0l16 64A4.001 4.001 0 01256 232zm-26.875-8h21.75L240 180.492zM92 224c-2.211 0-4-1.791-4-4v-28c0-2.209 1.789-4 4-4s4 1.791 4 4v28c0 2.209-1.789 4-4 4zM208 224c-2.211 0-4-1.791-4-4v-28c0-2.209 1.789-4 4-4s4 1.791 4 4v28c0 2.209-1.789 4-4 4z" fill="#4c241d"/><path d="M76 212c0-8.837-7.163-16-16-16s-16 7.163-16 16 7.163 8 16 8 16 .837 16-8z" fill="#a9ba5a"/><path d="M64.016 224.021c-.637 0-1.285-.006-1.934-.01L60 224l-2.082.012c-5.824.035-11.293.084-14.852-3.447C41.031 218.545 40 215.664 40 212c0-11.027 8.973-20 20-20s20 8.973 20 20c0 3.664-1.031 6.545-3.066 8.564-3.164 3.139-7.844 3.457-12.918 3.457zM60 216l2.145.012c3.715.021 7.957.061 9.152-1.125.582-.576.703-1.889.703-2.887 0-6.617-5.383-12-12-12s-12 5.383-12 12c0 .998.121 2.311.703 2.887 1.195 1.186 5.406 1.143 9.152 1.125z" fill="#4c241d"/><path d="M60 252c-2.211 0-4-1.791-4-4v-28c0-2.209 1.789-4 4-4s4 1.791 4 4v28c0 2.209-1.789 4-4 4zM240 252c-2.211 0-4-1.791-4-4v-16c0-2.209 1.789-4 4-4s4 1.791 4 4v16c0 2.209-1.789 4-4 4z" fill="#4c241d"/><g><path d="M92 248H72v-6.895A9.105 9.105 0 0181.105 232h1.791a9.105 9.105 0 019.105 9.105V248z" fill="#a9ba5a"/><path d="M92 252H72c-2.211 0-4-1.791-4-4v-6.895C68 233.879 73.879 228 81.105 228h1.789C90.121 228 96 233.879 96 241.105V248c0 2.209-1.789 4-4 4zm-16-8h12v-2.895A5.11 5.11 0 0082.895 236h-1.789a5.11 5.11 0 00-5.105 5.105V244z" fill="#4c241d"/></g><g><circle cx="108" cy="124" fill="#c1dbdc" r="8"/><path d="M108 136c-6.617 0-12-5.383-12-12s5.383-12 12-12 12 5.383 12 12-5.383 12-12 12zm0-16c-2.207 0-4 1.795-4 4s1.793 4 4 4 4-1.795 4-4-1.793-4-4-4z" fill="#4c241d"/></g><g><circle cx="136" cy="124" fill="#c1dbdc" r="8"/><path d="M136 136c-6.617 0-12-5.383-12-12s5.383-12 12-12 12 5.383 12 12-5.383 12-12 12zm0-16c-2.207 0-4 1.795-4 4s1.793 4 4 4 4-1.795 4-4-1.793-4-4-4z" fill="#4c241d"/></g><g><circle cx="164" cy="124" fill="#c1dbdc" r="8"/><path d="M164 136c-6.617 0-12-5.383-12-12s5.383-12 12-12 12 5.383 12 12-5.383 12-12 12zm0-16c-2.207 0-4 1.795-4 4s1.793 4 4 4 4-1.795 4-4-1.793-4-4-4z" fill="#4c241d"/></g><g><circle cx="192" cy="124" fill="#c1dbdc" r="8"/><path d="M192 136c-6.617 0-12-5.383-12-12s5.383-12 12-12 12 5.383 12 12-5.383 12-12 12zm0-16c-2.207 0-4 1.795-4 4s1.793 4 4 4 4-1.795 4-4-1.793-4-4-4z" fill="#4c241d"/></g><path d="M96 176c-2.211 0-4-1.791-4-4v-8c0-2.209 1.789-4 4-4s4 1.791 4 4v8c0 2.209-1.789 4-4 4zM204 176c-2.211 0-4-1.791-4-4v-8c0-2.209 1.789-4 4-4s4 1.791 4 4v8c0 2.209-1.789 4-4 4z" fill="#4c241d"/><g><path d="M212 104c-9.046-20.96-33.351-36-62-36s-52.954 15.04-62 36z" fill="#b5a19c"/><path d="M212 108H88a4 4 0 01-3.672-5.586C94.246 79.438 120.637 64 150 64s55.754 15.438 65.672 38.414A4 4 0 01212 108zm-117.441-8h110.883C195.141 83.035 173.707 72 150 72s-45.141 11.035-55.441 28z" fill="#4c241d"/></g><g><path d="M128 56h44v12h-44z" fill="#b5a19c"/><path d="M172 72h-44c-2.211 0-4-1.791-4-4V56c0-2.209 1.789-4 4-4h44c2.211 0 4 1.791 4 4v12c0 2.209-1.789 4-4 4zm-40-8h36v-4h-36z" fill="#4c241d"/></g><g><path d="M144 40h12v16h-12z" fill="#b5a19c"/><path d="M156 60h-12c-2.211 0-4-1.791-4-4V40c0-2.209 1.789-4 4-4h12c2.211 0 4 1.791 4 4v16c0 2.209-1.789 4-4 4zm-8-8h4v-8h-4z" fill="#4c241d"/></g></svg>