
Open SVG
Paste markup
Demo
Contribute
About
Powered by the incredible SVGO


1.71k → 1.73k 100.74%
<svg viewBox="0 0 512 512"xmlns="http://www.w3.org/2000/svg" data-name="Layer 1"><path d="M186.79 169.77h138.42v142.2H186.79z" fill="#c6ac95"/><path d="M186.79 170.77h30v141.2h-30z" fill="#efccac"/><path d="M373.31 242.18l.55 228.72h84.48V242.18z" fill="#c6ac95"/><path d="M342.46 292.75v18.22h-33.39v-18.22h-37.38v18.22h-31.38v-18.22h-37.38v18.22h-33.39v-18.22h-35.4V468.9h243.72V292.75z" fill="#c19678"/><path d="M301.05 38.22l-45.01 19.59H256V17.08h.04z" fill="#50dd5a"/><path d="M289.91 467.78v1.12h-67.82v-45.56A28.332 28.332 0 01235.9 399l20.1-12 20.1 12a28.332 28.332 0 0113.81 24.34z" fill="#7b86c8"/><path d="M451.38 181.4v18.22h-24.23V181.4H404.5v18.22h-24.23V181.4h-22.65v54.66a10.119 10.119 0 0010.12 10.12h96.17a10.119 10.119 0 0010.12-10.12V181.4z" fill="#c79a83"/><path d="M277.3 232.19v28.64h-42.6v-28.64a21.3 21.3 0 0142.6 0z" fill="#ae8567"/><path d="M256 78.59l-85.38 92.18h170.76z" fill="#e26764"/><path d="M403.32 246.18h-30l.54 224.72h30z" fill="#efccac"/><path d="M256 78.59l-85.38 92.18h30L271 94.785z" fill="#f97d7a"/><path d="M134.14 292.75h30V468.9h-30z" fill="#ad826a"/><path d="M387.62 236.06v-36.44h-7.35V181.4h-22.65v54.66a10.119 10.119 0 0010.12 10.12h30a10.119 10.119 0 01-10.12-10.12z" fill="#f2c0aa"/><path d="M53.66 243.2v226.7h85.48l-.45-225.72z" fill="#c6ac95"/><path d="M78.09 246.18H53.66V469.9h30V246.18z" fill="#efccac"/><path d="M131.73 181.4v18.22H107.5V181.4H84.85v18.22H60.62V181.4H37.97v54.66a10.119 10.119 0 0010.12 10.12h96.17a10.119 10.119 0 0010.12-10.12V181.4z" fill="#c79a83"/><path d="M67.97 236.06v-36.44h-7.35V181.4H37.97v54.66a10.119 10.119 0 0010.12 10.12h30a10.119 10.119 0 01-10.12-10.12z" fill="#f2c0aa"/><path d="M235.9 399a28.332 28.332 0 00-13.81 24.34v45.56h23v-45.56A28.332 28.332 0 01258.9 399l8.6-5.134L256 387z" fill="#6c7bb7"/><path d="M463.15 468.9H48.85a23.029 23.029 0 00-23.03 23.03v4.3h460.36v-4.3a23.029 23.029 0 00-23.03-23.03z" fill="#8890a4"/><path d="M78.85 468.9h-30a23.029 23.029 0 00-23.03 23.03v4.3h30v-4.3a23.029 23.029 0 0123.03-23.03z" fill="#b0bbd1"/><g fill="#284268"><path d="M151.18 348.27h14.51a6 6 0 000-12h-14.51a6 6 0 000 12zM219.89 363.46h18.56a6 6 0 000-12h-18.56a6 6 0 100 12zM325.05 394.84h15.52a6 6 0 000-12h-15.52a6 6 0 000 12zM165.43 391.88a6 6 0 006 6h14.51a6 6 0 000-12h-14.51a6 6 0 00-6 6zM410.16 405.04a6 6 0 006 6h17.55a6 6 0 000-12h-17.55a6 6 0 00-6 6zM90.78 399.04H73.23a6 6 0 000 12h17.55a6 6 0 100-12zM283.67 350.13h14.51a6 6 0 000-12h-14.51a6 6 0 100 12zM234.7 266.83h42.6a6 6 0 006-6v-28.64a27.3 27.3 0 10-54.6 0v28.64a6 6 0 006 6zm6-34.64a15.3 15.3 0 0130.6 0v22.64h-30.6zM209.13 191.31a6 6 0 00-6 6v4.61a6 6 0 0012 0v-4.61a6 6 0 00-6-6zM209.13 214.09a6 6 0 00-6 6v37.5a6 6 0 0012 0v-37.5a6 6 0 00-6-6zM419.46 311.9a6 6 0 00-6-6h-16.53a6 6 0 100 12h16.53a6 6 0 006-6zM125.63 273.26a6 6 0 00-6-6h-16.54a6 6 0 000 12h16.54a6 6 0 006-6z"/><path d="M464.34 462.93V252.158a16.128 16.128 0 0015.69-16.1V181.4a6 6 0 00-6-6h-22.65a6 6 0 00-6 6v12.22h-12.23V181.4a6 6 0 00-6-6H404.5a6 6 0 00-6 6v12.22h-12.23V181.4a6 6 0 00-6-6h-22.65a6 6 0 00-6 6v54.66a16.128 16.128 0 0015.69 16.1v34.59h-24.85a6 6 0 00-6 6v12.22h-5.25v-128.2h10.17a6 6 0 004.4-10.077L262 76.238V61.76l41.444-18.038a6 6 0 00.156-10.932l-42.324-19.879A6 6 0 00250 15.77v60.468l-83.782 90.455a6 6 0 004.4 10.077h10.17v128.2h-5.25v-12.22a6 6 0 00-6-6H144.69v-34.592a16.128 16.128 0 0015.69-16.1V181.4a6 6 0 00-6-6h-22.65a6 6 0 00-6 6v12.22H113.5V181.4a6 6 0 00-6-6H84.85a6 6 0 00-6 6v12.22H66.62V181.4a6 6 0 00-6-6H37.97a6 6 0 00-6 6v54.66a16.128 16.128 0 0015.69 16.1v210.77a29.062 29.062 0 00-27.84 29v4.3a6 6 0 006 6h460.36a6 6 0 006-6v-4.3a29.062 29.062 0 00-27.84-29zM262 26.508l24.493 11.5L262 48.672zM363.62 236.06V187.4h10.65v12.22a6 6 0 006 6h24.23a6 6 0 006-6V187.4h10.65v12.22a6 6 0 006 6h24.23a6 6 0 006-6V187.4h10.65v48.66a4.124 4.124 0 01-4.12 4.12h-96.17a4.124 4.124 0 01-4.12-4.12zM256 87.419l71.644 77.351H231a6 6 0 000 12h88.21v128.2h-4.14v-12.22a6 6 0 00-6-6h-37.38a6 6 0 00-6 6v12.22h-19.38v-12.22a6 6 0 00-6-6h-37.38a6 6 0 00-6 6v12.22h-4.14v-128.2H209a6 6 0 000-12h-24.644zM163.54 298.75v12.22a6 6 0 006 6h33.39a6 6 0 006-6v-12.22h25.38v12.22a6 6 0 006 6h31.38a6 6 0 006-6v-12.22h25.38v12.22a6 6 0 006 6h33.39a6 6 0 006-6v-12.22h23.4v31.45h-11.38a6 6 0 000 12h11.38v49.34a6 6 0 1012 0v-26.06h15.43a6 6 0 000-12h-15.43v-60.73a6 6 0 00-4.55-5.816V252.18h73.03v10.19h-15.87a6 6 0 000 12h15.87v172.25h-14.92a6 6 0 100 12h14.92v4.28h-68.48v-50.4a6 6 0 00-12 0v21.97h-12.39a6 6 0 000 12h12.39v16.43h-75.95v-28.75h25.51a6 6 0 000-12h-25.549a34.487 34.487 0 00-16.695-28.3l-20.1-12a6 6 0 00-6.152 0l-20.1 12a34.49 34.49 0 00-16.734 29.49v19.23h-16.33a6 6 0 100 12h16.33v8.33h-75.95v-36.68h11.38a6 6 0 000-12h-11.38V298.75zm120.37 124.59v39.56h-55.82v-39.56a22.435 22.435 0 0110.886-19.188L256 393.988l17.027 10.165a22.436 22.436 0 0110.883 19.187zM43.97 236.06V187.4h10.65v12.22a6 6 0 006 6h24.23a6 6 0 006-6V187.4h10.65v12.22a6 6 0 006 6h24.23a6 6 0 006-6V187.4h10.65v48.66a4.124 4.124 0 01-4.12 4.12H48.09a4.124 4.124 0 01-4.12-4.12zm72.79 130.43h11.38v52.334a5.817 5.817 0 000 2.792v20.954h-15.43a6 6 0 100 12h15.43v8.33H59.66V320.94h15.83a6 6 0 100-12H59.66v-56.76h73.03v34.754a6 6 0 00-4.55 5.816v61.74h-11.38a6 6 0 100 12zM31.9 490.23a17.054 17.054 0 0116.95-15.33h414.3a17.054 17.054 0 0116.95 15.33z"/></g></svg>