
Open SVG
Paste markup
Demo
Contribute
About
Powered by the incredible SVGO


1.41k → 1.4k 99.38%
<svg viewBox="0 0 512 512" xmlns="http://www.w3.org/2000/svg" xmlns:xlink="http://www.w3.org/1999/xlink" data-name="Layer 1"><linearGradient id="a" gradientUnits="userSpaceOnUse" x1="151.973" x2="168.159" y1="426.891" y2="426.891"><stop offset=".322" stop-color="#a163f5"/><stop offset=".466" stop-color="#b074ee"/><stop offset=".752" stop-color="#d8a1dd"/><stop offset=".898" stop-color="#efbad3"/></linearGradient><linearGradient id="b" x1="151.973" x2="168.159" xlink:href="#a" y1="453.621" y2="453.621"/><linearGradient id="c" x1="344.442" x2="360.629" xlink:href="#a" y1="426.891" y2="426.891"/><linearGradient id="d" x1="344.442" x2="360.629" xlink:href="#a" y1="453.621" y2="453.621"/><linearGradient id="e" x1="90.576" x2="112.001" xlink:href="#a" y1="398.908" y2="398.908"/><linearGradient id="f" x1="90.576" x2="112.001" xlink:href="#a" y1="426.265" y2="426.265"/><linearGradient id="g" x1="90.576" x2="112.001" xlink:href="#a" y1="453.621" y2="453.621"/><linearGradient id="h" x1="400.601" x2="422.025" xlink:href="#a" y1="426.265" y2="426.265"/><linearGradient id="i" x1="400.601" x2="422.025" xlink:href="#a" y1="453.621" y2="453.621"/><linearGradient id="j" x1="400.763" x2="422.188" xlink:href="#a" y1="398.908" y2="398.908"/><linearGradient id="k" x1="411.313" x2="411.313" xlink:href="#a" y1="451" y2="87.792"/><linearGradient id="l" x1="101.289" x2="101.289" xlink:href="#a" y1="451" y2="87.792"/><linearGradient id="m" x1="256" x2="256" xlink:href="#a" y1="451" y2="87.792"/><path d="M163.159 421.891h-6.186a5 5 0 000 10h6.186a5 5 0 000-10z" fill="url(#a)"/><path d="M163.159 448.621h-6.186a5 5 0 000 10h6.186a5 5 0 000-10z" fill="url(#b)"/><path d="M355.629 421.891h-6.187a5 5 0 000 10h6.187a5 5 0 000-10z" fill="url(#c)"/><path d="M355.629 448.621h-6.187a5 5 0 000 10h6.187a5 5 0 000-10z" fill="url(#d)"/><path d="M107 393.908H95.576a5 5 0 000 10H107a5 5 0 000-10z" fill="url(#e)"/><path d="M107 421.265H95.576a5 5 0 000 10H107a5 5 0 000-10z" fill="url(#f)"/><path d="M107 448.621H95.576a5 5 0 000 10H107a5 5 0 000-10z" fill="url(#g)"/><path d="M417.025 421.265H405.6a5 5 0 000 10h11.424a5 5 0 000-10z" fill="url(#h)"/><path d="M417.025 448.621H405.6a5 5 0 000 10h11.424a5 5 0 000-10z" fill="url(#i)"/><path d="M417.188 393.908h-11.425a5 5 0 000 10h11.425a5 5 0 000-10z" fill="url(#j)"/><path d="M417.025 366.551H405.6a5 5 0 000 10h11.424a5 5 0 000-10z" fill="url(#k)"/><path d="M107 366.551H95.576a5 5 0 100 10H107a5 5 0 100-10z" fill="url(#l)"/><path d="M446.372 471.166h-10.081V325.874a5 5 0 00-7.886-4.084l-41.674 29.451a5 5 0 00-2.114 4.083v115.842h-10.783V401.02a5 5 0 00-5-5h-34.26a5 5 0 00-5 5v70.146h-16.493V447.3a4.991 4.991 0 00-.169-1.287l-16.932-63.552 9.932-31.273a5 5 0 00-4.766-6.513h-4.132l8.461-31.059a5 5 0 00-4.825-6.314h-4.95l9.718-30.872a5 5 0 00-4.77-6.5h-4.088l8.894-30.994a5 5 0 00-4.806-6.379h-3.468l8.3-31.084a5 5 0 00-4.831-6.289h-4.506l9.31-32.224a5 5 0 00-4.8-6.387h-4.327l9.158-34.3a5 5 0 00-4.831-6.29h-4.406l9.19-30.17a5 5 0 00-4.784-6.457H279.17l11.383-31.626a5 5 0 00-4.7-6.693h-14.938V16a5 5 0 00-5-5h-19.83a5 5 0 00-5 5v25.037h-14.934a5 5 0 00-4.7 6.693l11.379 31.623h-21.48a5 5 0 00-4.784 6.457l9.19 30.17h-4.406a5 5 0 00-4.831 6.29l9.158 34.3h-4.327a5 5 0 00-4.8 6.387l9.31 32.224h-4.51a5 5 0 00-4.831 6.289l8.3 31.084h-3.469a5 5 0 00-4.806 6.379l8.894 30.994h-4.088a5 5 0 00-4.77 6.5l9.72 30.873h-4.95a5 5 0 00-4.825 6.314l8.461 31.059h-4.132a5 5 0 00-4.766 6.513l9.932 31.273-16.932 63.547a4.991 4.991 0 00-.169 1.287v23.871h-16.493V401.02a5 5 0 00-5-5h-34.26a5 5 0 00-5 5v70.146h-10.783V355.324a5 5 0 00-2.114-4.083L83.6 321.79a5 5 0 00-7.886 4.084v145.292H65.628a5 5 0 00-5 5V496a5 5 0 005 5h380.744a5 5 0 005-5v-19.834a5 5 0 00-5-5zm-51.755-113.253l31.674-22.383v135.636h-31.674zm-55.043 48.107h24.26v65.146h-24.26zM251.085 21h9.83v20.037h-9.83zm27.649 30.037l-10.192 28.316h-25.084l-10.192-28.316zM293.9 89.353l-8.11 26.627h-59.58l-8.11-26.627zm.241 36.627l-8.169 30.591h-59.944l-8.169-30.591zM294 166.571l-8.267 28.611h-59.467L218 166.571zm.14 38.611l-7.309 27.373h-61.663l-7.309-27.373zm-7.981 64.746H225.84l-7.854-27.373h76.028zm7.675 10l-8.616 27.372h-58.436l-8.617-27.374zm.271 37.374l-7.457 27.373h-61.3l-7.454-27.375zm.206 37.373l-7.2 22.664h-62.23l-7.2-22.664zm-69.244 32.664h61.864l14.643 54.961h-91.148zM208.919 452.3h94.162v18.871h-94.162zm-60.753-46.28h24.26v65.146h-24.26zm-62.457-70.49l31.674 22.383v113.253H85.709zM441.372 491H70.628v-9.834h370.744z" fill="url(#m)"/></svg>