
Open SVG
Paste markup
Demo
Contribute
About
Powered by the incredible SVGO


4.91k → 3.46k 70.47%
<svg xmlns="http://www.w3.org/2000/svg" viewBox="0 0 392.282 392.282"><path d="M154.524 254.296c-32 0-54.84-20.32-71.48-35.16-10.52-9.4-19.6-17.48-26.92-17.52h-8.4l.48-8.4c4.052-72.164 63.72-128.624 136-128.68 2.828 0 5.628.08 8.4.24h2.84l2.08 1.92c22.44 20.68 22.88 43.6 1.36 68a284.095 284.095 0 01-29.52 27.6c-13.88 12-27 22.96-31.44 32.96a12.954 12.954 0 00-.2 12.88c2.72 4.88 9.24 9.68 19.4 14.16a89.744 89.744 0 0121.88 12.36h1.08l4.84 6.24-2.56 9.88h-4.76a61.015 61.015 0 01-20.64 3.36l-2.44.16z" fill="#ccd33d"/><path d="M184.324 337.136c-73.42.004-133.656-58.144-136.24-131.52l-.28-8.52 8.52.24c9.24.24 18.28 8.32 29.72 18.52 17 15.16 38.12 34 68.4 34h2.4a53.819 53.819 0 0020.36-3.6c1.52-.8 2.4-1.64 2.6-2.48s.32-1.28-1.32-3.28-7.2-7-23.12-14.04a46.11 46.11 0 01-19.28-13.84 18.32 18.32 0 01-1.84-18.92c4.88-10.96 17.68-21.88 32.56-34.52a283.103 283.103 0 0028.92-27.04c17.76-20.24 20-36 8-52l-12.56-16.8 20.56 4a135.516 135.516 0 0155.08 24.8l4.44 3.36-10.4 34.44 11.04 11.04 16.2-29.4 7.36 10.36a135.382 135.382 0 0122 49.4l1.32 6.04-5.48 2.76c-21.28 10.8-22 16.92-23.36 28-1.48 12-3.48 28.88-39.16 58.64a102.78 102.78 0 00-24.8 27.32 45.074 45.074 0 00-5.08 30.4l1.24 7.64-7.36 1.68a136.94 136.94 0 01-30.44 3.32z" fill="#73ddcd"/><path d="M326.364 140.656l6.76-22.36-28.64-26.96-31.6 57-17.08-17.08 20.28-66.76-24.32-22.92a16.362 16.362 0 01-4.2-18.4 20.498 20.498 0 0110.84-10.84h.4a16.372 16.372 0 015.84-1.08c4.58.084 8.92 2.052 12 5.44l22.88 24.28 66.84-20.2 17.08 17.08-57 31.48 26.96 28.6 22.4-6.76 13.88 13.88-27.16 15.08-4.84 2.4-2.2 4.48-15.4 27.52-13.72-13.88z" fill="#fff"/><path d="M216.084 324.136a49.485 49.485 0 015.84-32 106.83 106.83 0 0126.16-28.64c34.32-28.64 36-43.68 37.6-55.8 1.32-10.92 3.68-19.4 22.32-29.64l10.36-5.68 1.28 11.76a138.228 138.228 0 011 16.72 135.439 135.439 0 01-40 96.4 136.916 136.916 0 01-54.04 33.2l-9.08 2.96-1.44-9.28z" fill="#ccd33d"/><g fill="#2b1b19"><path d="M54.244 323.496a6 6 0 000 8.48c3.948 4 8.116 7.78 12.48 11.32 2.34 2.344 6.14 2.348 8.484.004a5.997 5.997 0 00-.488-8.924l-.4-.32c-4-3.32-8-6.88-11.68-10.56a5.993 5.993 0 00-8.396 0zM6.284 184.936h.76a6 6 0 005.96-5.28c.64-5.2 1.52-10.44 2.64-15.52 1.236-3.076-.252-6.568-3.328-7.804a5.997 5.997 0 00-8.232 5.288c-1.2 5.48-2.12 11.04-2.8 16.6a5.998 5.998 0 005 6.716zM28.084 287.376a5.997 5.997 0 00-2.08 8.24c2.88 4.8 6 9.52 9.32 14.04a6 6 0 009.68-7.08c-3.08-4.24-6-8.64-8.68-13.12a5.997 5.997 0 00-8.24-2.08zM11.244 245.816a6 6 0 00-4 7.44c1.6 5.36 3.44 10.72 5.52 16a6.097 6.097 0 007.92 3.4 6.097 6.097 0 003.4-7.92c-1.92-4.84-3.68-9.84-5.16-14.88a6 6 0 00-7.44-4l-.24-.04zM16.084 141.176a6.001 6.001 0 007.796-3.348c0-.004.004-.008.004-.012a143.77 143.77 0 016.44-14.36 6.001 6.001 0 10-10.72-5.4c-2.52 5-4.84 10.16-6.88 15.4a6 6 0 003.36 7.72zM7.084 229.696h1a6.004 6.004 0 005.204-6.704c0-.004 0-.012-.004-.016-.64-5.2-1.08-10.48-1.28-15.68a6.006 6.006 0 00-6.22-5.78 6.006 6.006 0 00-5.78 6.22c.092 5.624.548 11.236 1.36 16.8a6 6 0 005.72 5.16zM150.204 31.696h1.16c5.16-1 10.4-1.76 15.6-2.28 3.332-.112 5.948-2.904 5.836-6.236a6.041 6.041 0 00-6.996-5.764c-5.56.56-11.16 1.36-16.68 2.44a6.04 6.04 0 101.116 12l-.036-.16zM39.484 102.376a5.993 5.993 0 004.88-2.48c3.08-4.24 6.36-8.4 9.8-12.32a6.04 6.04 0 10-9.04-8c-3.68 4-7.2 8.64-10.48 13.2a6.001 6.001 0 004.84 9.52v.08zM210.124 30.416h.92c3.312.244 6.196-2.248 6.44-5.56s-2.248-6.196-5.56-6.44c-5.52-.84-11.16-1.44-16.76-1.76-3.312-.2-6.16 2.328-6.36 5.64s2.328 6.16 5.64 6.36c5.28.4 10.52.96 15.68 1.76zM73.884 68.376c4-3.36 8.24-6.56 12.56-9.52a6 6 0 00-6.8-9.88c-4.6 3.16-9.12 6.6-13.44 10.16a6.008 6.008 0 007.68 9.24zM107.724 45.616a5.981 5.981 0 002.56-.6c4.72-2.24 9.6-4.28 14.52-6.08a5.999 5.999 0 003.82-7.576 6.002 6.002 0 00-6.98-3.984l-.84.28a149.363 149.363 0 00-15.52 6.52 5.999 5.999 0 002.56 11.44h-.12zM179.404 373.376c-3.312-.088-6.072 2.528-6.16 5.84s2.528 6.072 5.84 6.16h5c4 0 8 0 11.76-.36a6.014 6.014 0 005.62-6.38 6.014 6.014 0 00-6.38-5.62c-5.216.396-10.452.516-15.68.36zM350.324 266.576a5.998 5.998 0 007.672-3.62l.008-.02c1.88-5.28 3.52-10.68 4.92-16 .992-3.16-.764-6.528-3.928-7.524a5.999 5.999 0 00-7.716 4.724 163.11 163.11 0 01-4.6 15.04 6.005 6.005 0 003.644 7.4zM360.084 177.816h1a6.002 6.002 0 004.96-6.88c-.92-5.52-2.08-11.08-3.48-16.48a6 6 0 00-11.6 3.04c1.32 5.04 2.4 10.24 3.28 15.4a5.998 5.998 0 005.84 4.92z"/><path d="M364.764 17.096l-63.72 19.28-21.44-22.76a19.399 19.399 0 00-22.08-5.24h-.36a23.606 23.606 0 00-12.84 12.84 21.69 21.69 0 00-1.28 4.72l-2.44-.84c-3.16-1.016-6.544.72-7.56 3.88s.72 6.544 3.88 7.56c3.08 1 6.16 2.12 9.24 3.28a22.913 22.913 0 003.24 4l22.68 21.44-6.48 21.4c-63.38-45.208-151.404-30.48-196.616 32.9s-30.48 151.404 32.9 196.616 151.404 30.48 196.616-32.9c36.052-50.54 34.792-118.716-3.1-167.896l10.24-18.48 23.76 22.4-5.72 18.92a5.8 5.8 0 001.32 5.92s11.72 11.6 12 12a5.802 5.802 0 007.948-2.028c.016-.032.036-.06.052-.092l15.64-28.68 28.24-15.4a5.838 5.838 0 001.72-9.4l-10.52-11.16a5.803 5.803 0 00-5.8-1.44l-19.12 5.8-22.4-23.76 50.28-28a5.838 5.838 0 001.72-9.4l-14.12-14.12a5.846 5.846 0 00-5.88-1.36zm-271.68 92.88a128.446 128.446 0 0191-37.6c2.668 0 5.332.08 8 .24 22.68 20.92 16 40 .8 57.2a280.577 280.577 0 01-28.8 26.56c-14.76 12.56-28.52 24.28-33.72 36-6.16 13.92-1.64 26.52 23.24 37.52 12.44 5.52 19.2 9.8 21.84 13.04.36.44.72 0 .64 0-.276.02-.548.088-.8.2a49.712 49.712 0 01-18.88 3.24c-30.16 1.28-51.64-18-68.32-32.92-12-10.68-21.96-19.56-32.32-19.64a128.446 128.446 0 0137.32-83.84zm220 91.12c-.04 55.792-35.952 105.232-89 122.52a41.977 41.977 0 014.92-27.24 99.138 99.138 0 0124-26.4c36.92-30.8 39-48 40.6-61.24 1-8.36 1.76-14.6 18.28-23.68a130.47 130.47 0 011 16l.2.04zm-7.48-43.28a127.791 127.791 0 014.4 15.4c-25.16 12.8-26.28 21.92-27.8 34.36-1.36 11.2-3.12 25.84-36.48 53.68a109.374 109.374 0 00-26.8 29.72 53.056 53.056 0 00-6 35.72c-69.388 15.86-138.496-27.528-154.36-96.92a128.707 128.707 0 01-3.16-24.16c6.36 0 14.6 7.56 24.72 16.56 18.32 16.36 41.76 37.24 76.68 36a60.069 60.069 0 0024-4.56 11.998 11.998 0 006.64-7.52 11.436 11.436 0 00-2.88-10.44c-3.76-4.6-12-10.04-26.16-16.36-16.92-7.48-20.6-14.76-17.28-22.2 4-9.36 16.88-20 30.56-32a291.185 291.185 0 0030.04-28c16.72-19.04 25.32-40 8.32-62.52a128.034 128.034 0 0152 23.64l-9.2 30.36a5.836 5.836 0 001.4 5.92s14.92 14.8 15.4 15.08a5.802 5.802 0 007.948-2.028c.016-.032.036-.06.052-.092l11.64-21.04a128.67 128.67 0 0116.32 31.4zm14.88-94.4a5.798 5.798 0 00-2.408 7.84c.028.052.056.108.088.16.24.44 30.84 33 30.84 33a5.802 5.802 0 005.92 1.56l19.32-5.84 3 3-18 9.96-5.16 2.56a5.755 5.755 0 00-2.64 2.68l-2.56 5.2-9.96 18-2.92-3.2 5.8-19.16a5.803 5.803 0 00-1.88-6.16l-31.56-29.68a5.799 5.799 0 00-8.2 0c-.4.44-28.8 51.6-28.8 51.6l-6.2-6.2 19.36-63.8a5.8 5.8 0 00-1.88-6.2l-25.28-23.4a8.32 8.32 0 01-2.28-9.6 12.55 12.55 0 016.52-6.48h.2a8.318 8.318 0 019.36 2.4l24 25.36a5.795 5.795 0 005.92 1.6l64-19.32 6.2 6.2-50.8 27.92zM343.524 281.656a5.997 5.997 0 00-8 2.36c-2.52 4.6-5.28 9.12-8.24 13.44a6.015 6.015 0 009.84 6.92c3.12-4.64 6.08-9.48 8.8-14.36a6 6 0 00-2.12-8.2l-.28-.16zM368.084 217.776c.52-5.56.76-11.2.76-16.8v-.84c-.02-3.3-2.7-5.96-6-5.96a5.998 5.998 0 00-6.156 5.836c0 .04 0 .08-.004.124v.92c0 5.24-.24 10.52-.72 15.76a6.001 6.001 0 005.432 6.52H361.964a5.998 5.998 0 006.12-5.56zM136.724 366.856a6.006 6.006 0 00-7.66 3.66 6.006 6.006 0 003.66 7.66h.72c5.36 1.52 10.88 2.84 16.4 4h1.12a6.041 6.041 0 001.94-11.924 6.252 6.252 0 00-.816-.076 123.47 123.47 0 01-15.364-3.32zM237.644 365.016c-4.96 1.664-10.024 3-15.16 4a6.008 6.008 0 002.64 11.72c5.44-1.24 10.92-2.76 16.24-4.48a6.002 6.002 0 003.556-7.704 5.998 5.998 0 00-7.276-3.696v.16zM96.964 349.816c-2.748-1.852-6.476-1.128-8.328 1.62a5.998 5.998 0 002.248 8.696c4.84 2.84 9.84 5.48 14.92 8 3.004 1.412 6.588.124 8-2.88s.124-6.588-2.88-8c-4.76-2.316-9.44-4.876-13.96-7.436zM309.964 318.976a145.639 145.639 0 01-11.28 11 6.005 6.005 0 00-.48 8.48 6.005 6.005 0 008.48.48c4-3.72 8.24-7.68 12-11.76a5.997 5.997 0 00-.384-8.476 6.002 6.002 0 00-8.376.276h.04zM276.684 346.576c-4.4 2.8-9 5.44-13.64 8-2.948 1.512-4.112 5.132-2.6 8.08s5.132 4.112 8.08 2.6c4.96-2.56 9.88-5.4 14.6-8.4a6 6 0 00-6.16-10.28h-.28z"/></g></svg>